STARTFONT 2.1
COMMENT
COMMENT Converted from OpenType font "BeVietnam-Thin.ttf" by "otf2bdf 3.0".
COMMENT
FONT -FreeType-Be Vietnam Thin-Medium-R-Normal--25-180-100-100-P-112-ISO10646-1
SIZE 18 100 100
FONTBOUNDINGBOX 39 32 -9 -6
STARTPROPERTIES 19
FOUNDRY "FreeType"
FAMILY_NAME "Be Vietnam Thin"
WEIGHT_NAME "Medium"
SLANT "R"
SETWIDTH_NAME "Normal"
ADD_STYLE_NAME ""
PIXEL_SIZE 25
POINT_SIZE 180
RESOLUTION_X 100
RESOLUTION_Y 100
SPACING "P"
AVERAGE_WIDTH 112
CHARSET_REGISTRY "ISO10646"
CHARSET_ENCODING "1"
FONT_ASCENT 29
FONT_DESCENT 6
COPYRIGHT "Copyright 2019 The Bevietnam Project Authors (https://github.com/bettergui/beVietnam)"
_OTF_FONTFILE "BeVietnam-Thin.ttf"
_OTF_PSNAME "BeVietnam-Thin"
ENDPROPERTIES
CHARS 445
STARTCHAR 000D
ENCODING 13
SWIDTH 600 0
DWIDTH 15 0
BBX 0 0 0 0
BITMAP
ENDCHAR
STARTCHAR 0020
ENCODING 32
SWIDTH 200 0
DWIDTH 5 0
BBX 0 0 0 0
BITMAP
ENDCHAR
STARTCHAR 0021
ENCODING 33
SWIDTH 200 0
DWIDTH 5 0
BBX 2 19 2 0
BITMAP
80
80
80
80
80
80
80
80
80
80
80
80
80
80
80
80
00
80
C0
ENDCHAR
STARTCHAR 0022
ENCODING 34
SWIDTH 480 0
DWIDTH 12 0
BBX 7 5 3 14
BITMAP
44
84
84
C6
C2
ENDCHAR
STARTCHAR 0023
ENCODING 35
SWIDTH 840 0
DWIDTH 21 0
BBX 17 18 2 0
BITMAP
010000
010400
010400
020400
020400
020800
7FFF80
040800
040800
040800
041000
041000
FFFF80
081000
082000
082000
082000
102000
ENDCHAR
STARTCHAR 0024
ENCODING 36
SWIDTH 520 0
DWIDTH 13 0
BBX 11 21 1 -2
BITMAP
0400
0400
1F80
2440
4440
4420
4420
4400
4400
3400
0F80
0440
0420
8420
8420
4420
4420
2440
1F80
0400
0400
ENDCHAR
STARTCHAR 0025
ENCODING 37
SWIDTH 840 0
DWIDTH 21 0
BBX 20 18 1 0
BITMAP
300200
CC0400
840400
840800
840800
841000
481000
302000
002000
004000
004000
0081C0
008220
010410
020410
020410
040420
0403E0
ENDCHAR
STARTCHAR 0026
ENCODING 38
SWIDTH 600 0
DWIDTH 15 0
BBX 14 18 2 0
BITMAP
0780
0840
1020
1020
1020
1000
1000
0800
0400
1A00
6310
8110
80A0
8040
8060
8090
4108
3E04
ENDCHAR
STARTCHAR 0027
ENCODING 39
SWIDTH 280 0
DWIDTH 7 0
BBX 3 5 2 14
BITMAP
E0
60
20
40
80
ENDCHAR
STARTCHAR 0028
ENCODING 40
SWIDTH 400 0
DWIDTH 10 0
BBX 6 24 3 -5
BITMAP
08
18
10
20
60
40
40
80
80
80
80
80
80
80
80
80
C0
40
40
20
20
10
08
04
ENDCHAR
STARTCHAR 0029
ENCODING 41
SWIDTH 400 0
DWIDTH 10 0
BBX 6 24 2 -5
BITMAP
80
40
20
10
10
08
08
08
0C
04
04
04
04
04
0C
08
08
08
18
10
10
20
40
80
ENDCHAR
STARTCHAR 002A
ENCODING 42
SWIDTH 480 0
DWIDTH 12 0
BBX 8 9 2 10
BITMAP
08
09
CB
34
1C
EB
89
08
18
ENDCHAR
STARTCHAR 002B
ENCODING 43
SWIDTH 560 0
DWIDTH 14 0
BBX 10 9 2 3
BITMAP
0400
0400
0400
0400
FFC0
0400
0400
0400
0400
ENDCHAR
STARTCHAR 002C
ENCODING 44
SWIDTH 240 0
DWIDTH 6 0
BBX 2 5 2 -3
BITMAP
C0
C0
40
40
40
ENDCHAR
STARTCHAR 002D
ENCODING 45
SWIDTH 600 0
DWIDTH 15 0
BBX 9 1 3 7
BITMAP
FF80
ENDCHAR
STARTCHAR 002E
ENCODING 46
SWIDTH 200 0
DWIDTH 5 0
BBX 2 2 2 0
BITMAP
80
C0
ENDCHAR
STARTCHAR 002F
ENCODING 47
SWIDTH 480 0
DWIDTH 12 0
BBX 9 23 2 -3
BITMAP
0080
0080
0100
0100
0100
0200
0200
0200
0400
0400
0800
0800
0800
1000
1000
1000
2000
2000
2000
4000
4000
8000
8000
ENDCHAR
STARTCHAR 0030
ENCODING 48
SWIDTH 560 0
DWIDTH 14 0
BBX 11 18 2 0
BITMAP
1F00
2080
4040
8040
8020
8020
8020
8020
8020
8020
8020
8020
8020
8020
8020
4040
6080
1F00
ENDCHAR
STARTCHAR 0031
ENCODING 49
SWIDTH 440 0
DWIDTH 11 0
BBX 7 18 3 0
BITMAP
10
30
50
90
10
10
10
10
10
10
10
10
10
10
10
10
10
FE
ENDCHAR
STARTCHAR 0032
ENCODING 50
SWIDTH 560 0
DWIDTH 14 0
BBX 11 18 2 0
BITMAP
0F00
20C0
4040
4020
8020
8020
0020
0040
0040
0080
0180
0300
0400
0800
1000
2000
4000
FFE0
ENDCHAR
STARTCHAR 0033
ENCODING 51
SWIDTH 560 0
DWIDTH 14 0
BBX 11 18 2 0
BITMAP
1F00
2080
4040
0020
0020
0020
0020
0040
0180
0F80
0040
0020
0020
0020
8020
4020
6040
1F80
ENDCHAR
STARTCHAR 0034
ENCODING 52
SWIDTH 560 0
DWIDTH 14 0
BBX 12 18 1 0
BITMAP
00C0
00C0
0140
0240
0240
0440
0840
0840
1040
2040
2040
4040
8040
7FF0
0040
0040
0040
0040
ENDCHAR
STARTCHAR 0035
ENCODING 53
SWIDTH 600 0
DWIDTH 15 0
BBX 11 18 3 0
BITMAP
FF80
8000
8000
8000
8000
8000
9E00
E180
8040
8040
0040
0020
0020
0040
0040
8040
4080
3F00
ENDCHAR
STARTCHAR 0036
ENCODING 54
SWIDTH 560 0
DWIDTH 14 0
BBX 11 18 2 0
BITMAP
0200
0400
0800
0800
1000
2000
2000
5F00
A080
C040
8020
8020
8020
8020
8020
4040
60C0
1F00
ENDCHAR
STARTCHAR 0037
ENCODING 55
SWIDTH 480 0
DWIDTH 12 0
BBX 10 18 1 0
BITMAP
FFC0
0040
0040
0080
0080
0100
0100
0100
0200
0200
0400
0400
0400
0800
0800
1000
1000
2000
ENDCHAR
STARTCHAR 0038
ENCODING 56
SWIDTH 600 0
DWIDTH 15 0
BBX 12 18 2 0
BITMAP
0F00
3080
4040
8020
8020
8020
4020
6040
1F80
60C0
8020
8020
8010
8010
8010
8020
4040
3F80
ENDCHAR
STARTCHAR 0039
ENCODING 57
SWIDTH 560 0
DWIDTH 14 0
BBX 11 18 2 0
BITMAP
1E00
2180
4040
8040
8020
8020
8020
8020
8060
40C0
3B40
0480
0080
0100
0200
0200
0400
0800
ENDCHAR
STARTCHAR 003A
ENCODING 58
SWIDTH 240 0
DWIDTH 6 0
BBX 1 13 2 0
BITMAP
80
80
00
00
00
00
00
00
00
00
00
80
80
ENDCHAR
STARTCHAR 003B
ENCODING 59
SWIDTH 240 0
DWIDTH 6 0
BBX 2 16 2 -3
BITMAP
C0
C0
00
00
00
00
00
00
00
00
00
C0
C0
40
40
80
ENDCHAR
STARTCHAR 003C
ENCODING 60
SWIDTH 520 0
DWIDTH 13 0
BBX 8 10 3 3
BITMAP
01
06
18
60
80
C0
30
0C
02
01
ENDCHAR
STARTCHAR 003D
ENCODING 61
SWIDTH 680 0
DWIDTH 17 0
BBX 12 6 3 5
BITMAP
FFF0
0000
0000
0000
0000
FFF0
ENDCHAR
STARTCHAR 003E
ENCODING 62
SWIDTH 520 0
DWIDTH 13 0
BBX 8 10 3 3
BITMAP
80
60
18
06
01
03
0C
30
40
80
ENDCHAR
STARTCHAR 003F
ENCODING 63
SWIDTH 560 0
DWIDTH 14 0
BBX 11 18 2 0
BITMAP
1F00
6080
C040
8020
8020
0020
0040
0040
0080
0100
0200
0400
0400
0800
0000
0000
0000
0C00
ENDCHAR
STARTCHAR 0040
ENCODING 64
SWIDTH 1000 0
DWIDTH 25 0
BBX 22 22 2 -4
BITMAP
00F800
070700
0800C0
100020
200010
400010
41F408
821408
820C08
840404
840404
840408
840408
820C08
820A10
81F3E0
400000
600000
200000
180000
060000
01FFE0
ENDCHAR
STARTCHAR 0041
ENCODING 65
SWIDTH 680 0
DWIDTH 17 0
BBX 15 18 1 0
BITMAP
0100
0100
0280
0280
0440
0440
0440
0820
0820
1010
1010
1FF0
2008
2008
2004
4004
4004
8002
ENDCHAR
STARTCHAR 0042
ENCODING 66
SWIDTH 600 0
DWIDTH 15 0
BBX 12 18 2 0
BITMAP
FE00
81C0
8020
8010
8010
8010
8010
8020
81C0
FFC0
8030
8010
8010
8010
8010
8010
8020
FFC0
ENDCHAR
STARTCHAR 0043
ENCODING 67
SWIDTH 720 0
DWIDTH 18 0
BBX 15 18 2 0
BITMAP
07C0
1830
2008
4004
4004
8002
8000
8000
8000
8000
8000
8000
8000
8004
4004
2008
1010
0FE0
ENDCHAR
STARTCHAR 0044
ENCODING 68
SWIDTH 680 0
DWIDTH 17 0
BBX 14 18 2 0
BITMAP
FE00
81C0
8030
8010
8008
8004
8004
8004
8004
8004
8004
8004
8004
8008
8008
8010
8060
FF80
ENDCHAR
STARTCHAR 0045
ENCODING 69
SWIDTH 560 0
DWIDTH 14 0
BBX 10 18 2 0
BITMAP
FFC0
8000
8000
8000
8000
8000
8000
8000
8000
FF80
8000
8000
8000
8000
8000
8000
8000
FFC0
ENDCHAR
STARTCHAR 0046
ENCODING 70
SWIDTH 520 0
DWIDTH 13 0
BBX 10 18 2 0
BITMAP
FFC0
8000
8000
8000
8000
8000
8000
8000
8000
FF80
8000
8000
8000
8000
8000
8000
8000
8000
ENDCHAR
STARTCHAR 0047
ENCODING 71
SWIDTH 680 0
DWIDTH 17 0
BBX 14 18 2 0
BITMAP
07C0
1830
2008
4008
8004
8000
8000
8000
8000
81FC
8004
8004
8004
8004
400C
600C
3034
0FC4
ENDCHAR
STARTCHAR 0048
ENCODING 72
SWIDTH 640 0
DWIDTH 16 0
BBX 13 18 2 0
BITMAP
8008
8008
8008
8008
8008
8008
8008
8008
8008
FFF8
8008
8008
8008
8008
8008
8008
8008
8008
ENDCHAR
STARTCHAR 0049
ENCODING 73
SWIDTH 200 0
DWIDTH 5 0
BBX 1 18 2 0
BITMAP
80
80
80
80
80
80
80
80
80
80
80
80
80
80
80
80
80
80
ENDCHAR
STARTCHAR 004A
ENCODING 74
SWIDTH 320 0
DWIDTH 8 0
BBX 5 18 1 0
BITMAP
08
08
08
08
08
08
08
08
08
08
08
08
08
08
08
08
10
F0
ENDCHAR
STARTCHAR 004B
ENCODING 75
SWIDTH 560 0
DWIDTH 14 0
BBX 11 18 2 0
BITMAP
8040
8080
8100
8200
8400
8800
9800
9000
A000
D000
8800
8400
8600
8200
8100
8080
8040
8020
ENDCHAR
STARTCHAR 004C
ENCODING 76
SWIDTH 520 0
DWIDTH 13 0
BBX 10 18 2 0
BITMAP
8000
8000
8000
8000
8000
8000
8000
8000
8000
8000
8000
8000
8000
8000
8000
8000
8000
FFC0
ENDCHAR
STARTCHAR 004D
ENCODING 77
SWIDTH 800 0
DWIDTH 20 0
BBX 16 18 2 0
BITMAP
C001
C003
C003
A005
A005
9005
9009
9009
8811
8811
8411
8421
8421
8241
8241
8141
8181
8181
ENDCHAR
STARTCHAR 004E
ENCODING 78
SWIDTH 720 0
DWIDTH 18 0
BBX 14 18 2 0
BITMAP
8004
C004
A004
A004
9004
8804
8C04
8404
8204
8104
8104
8084
8044
8024
8024
8014
800C
800C
ENDCHAR
STARTCHAR 004F
ENCODING 79
SWIDTH 720 0
DWIDTH 18 0
BBX 15 18 2 0
BITMAP
07C0
1830
2008
4004
8004
8002
8002
8002
8002
8002
8002
8002
8002
8004
4004
6008
3030
0FE0
ENDCHAR
STARTCHAR 0050
ENCODING 80
SWIDTH 560 0
DWIDTH 14 0
BBX 12 18 2 0
BITMAP
FC00
8380
8040
8020
8020
8010
8010
8020
8020
8040
8380
FC00
8000
8000
8000
8000
8000
8000
ENDCHAR
STARTCHAR 0051
ENCODING 81
SWIDTH 720 0
DWIDTH 18 0
BBX 15 20 2 -2
BITMAP
07C0
1830
2008
4004
8004
8002
8002
8002
8002
8002
8002
8102
8082
80C4
4044
6028
3030
0FC8
0004
0006
ENDCHAR
STARTCHAR 0052
ENCODING 82
SWIDTH 600 0
DWIDTH 15 0
BBX 12 18 2 0
BITMAP
FC00
83C0
8020
8020
8020
8010
8020
8020
8060
8380
FC00
8200
8100
8100
8080
8040
8040
8020
ENDCHAR
STARTCHAR 0053
ENCODING 83
SWIDTH 560 0
DWIDTH 14 0
BBX 12 18 1 0
BITMAP
0F80
3040
2020
4010
4010
4010
4000
2000
1C00
03C0
0020
0010
8010
4010
4010
6010
3020
1FC0
ENDCHAR
STARTCHAR 0054
ENCODING 84
SWIDTH 560 0
DWIDTH 14 0
BBX 12 18 1 0
BITMAP
FFF0
0200
0200
0200
0200
0200
0200
0200
0200
0200
0200
0200
0200
0200
0200
0200
0200
0200
ENDCHAR
STARTCHAR 0055
ENCODING 85
SWIDTH 680 0
DWIDTH 17 0
BBX 13 18 2 0
BITMAP
8008
8008
8008
8008
8008
8008
8008
8008
8008
8008
8008
8008
8008
8008
4010
4010
2020
1FC0
ENDCHAR
STARTCHAR 0056
ENCODING 86
SWIDTH 600 0
DWIDTH 15 0
BBX 15 18 0 0
BITMAP
8002
4004
4004
4004
2008
2008
1008
1010
1010
0810
0820
0820
0440
0440
0240
0280
0280
0180
ENDCHAR
STARTCHAR 0057
ENCODING 87
SWIDTH 960 0
DWIDTH 24 0
BBX 24 18 0 0
BITMAP
800801
400801
401401
401402
402402
202202
202202
204204
104104
104104
108104
108088
088088
090088
090050
050050
060050
060030
ENDCHAR
STARTCHAR 0058
ENCODING 88
SWIDTH 640 0
DWIDTH 16 0
BBX 14 18 1 0
BITMAP
8004
4008
2010
2010
1020
0840
0840
0480
0300
0300
0680
0480
0840
1020
1020
2010
4008
4008
ENDCHAR
STARTCHAR 0059
ENCODING 89
SWIDTH 560 0
DWIDTH 14 0
BBX 12 18 1 0
BITMAP
8010
4010
4020
2020
2040
1040
1080
0880
0900
0500
0600
0200
0200
0200
0200
0200
0200
0200
ENDCHAR
STARTCHAR 005A
ENCODING 90
SWIDTH 600 0
DWIDTH 15 0
BBX 12 18 1 0
BITMAP
FFF0
0010
0020
0020
0040
0080
0080
0100
0200
0200
0400
0800
0800
1000
2000
2000
4000
FFF0
ENDCHAR
STARTCHAR 005B
ENCODING 91
SWIDTH 400 0
DWIDTH 10 0
BBX 6 24 2 -4
BITMAP
FC
80
80
80
80
80
80
80
80
80
80
80
80
80
80
80
80
80
80
80
80
80
80
FC
ENDCHAR
STARTCHAR 005C
ENCODING 92
SWIDTH 480 0
DWIDTH 12 0
BBX 9 23 1 -3
BITMAP
8000
8000
4000
4000
4000
2000
2000
1000
1000
1000
0800
0800
0800
0400
0400
0400
0200
0200
0100
0100
0100
0080
0080
ENDCHAR
STARTCHAR 005D
ENCODING 93
SWIDTH 400 0
DWIDTH 10 0
BBX 6 24 2 -4
BITMAP
FC
04
04
04
04
04
04
04
04
04
04
04
04
04
04
04
04
04
04
04
04
04
04
FC
ENDCHAR
STARTCHAR 005E
ENCODING 94
SWIDTH 400 0
DWIDTH 10 0
BBX 8 5 1 14
BITMAP
08
14
24
42
81
ENDCHAR
STARTCHAR 005F
ENCODING 95
SWIDTH 680 0
DWIDTH 17 0
BBX 12 1 3 0
BITMAP
FFF0
ENDCHAR
STARTCHAR 0060
ENCODING 96
SWIDTH 200 0
DWIDTH 5 0
BBX 3 4 1 16
BITMAP
80
40
40
20
ENDCHAR
STARTCHAR 0061
ENCODING 97
SWIDTH 600 0
DWIDTH 15 0
BBX 12 14 1 0
BITMAP
0200
1DD0
2030
4030
4010
4010
8010
8010
8010
4010
4010
2030
3050
0F90
ENDCHAR
STARTCHAR 0062
ENCODING 98
SWIDTH 600 0
DWIDTH 15 0
BBX 12 19 2 0
BITMAP
8000
8000
8000
8000
8000
8200
9DC0
A060
C020
C010
8010
8010
8010
8010
8010
C010
C020
B040
8F80
ENDCHAR
STARTCHAR 0063
ENCODING 99
SWIDTH 560 0
DWIDTH 14 0
BBX 11 14 2 0
BITMAP
0600
3980
4040
8020
8020
8000
8000
8000
8000
8020
8020
4040
60C0
1F00
ENDCHAR
STARTCHAR 0064
ENCODING 100
SWIDTH 600 0
DWIDTH 15 0
BBX 12 19 1 0
BITMAP
0010
0010
0010
0010
0010
0210
1DD0
2030
4030
4010
4010
8010
8010
8010
4010
4010
2030
3050
0F90
ENDCHAR
STARTCHAR 0065
ENCODING 101
SWIDTH 560 0
DWIDTH 14 0
BBX 11 14 2 0
BITMAP
0400
3B80
4040
C040
8020
8020
8020
FFE0
8000
8000
8020
4040
60C0
1F00
ENDCHAR
STARTCHAR 0066
ENCODING 102
SWIDTH 320 0
DWIDTH 8 0
BBX 7 18 1 0
BITMAP
1C
20
20
20
20
FE
20
20
20
20
20
20
20
20
20
20
20
20
ENDCHAR
STARTCHAR 0067
ENCODING 103
SWIDTH 600 0
DWIDTH 15 0
BBX 11 19 2 -5
BITMAP
0400
33A0
4060
8060
8020
8020
8020
8020
8020
8020
8060
4060
31A0
0E20
0020
0020
0020
00C0
0F00
ENDCHAR
STARTCHAR 0068
ENCODING 104
SWIDTH 600 0
DWIDTH 15 0
BBX 12 19 2 0
BITMAP
8000
8000
8000
8000
8000
8600
9B80
A040
C020
8020
8020
8010
8010
8010
8010
8010
8010
8010
8010
ENDCHAR
STARTCHAR 0069
ENCODING 105
SWIDTH 200 0
DWIDTH 5 0
BBX 2 18 2 0
BITMAP
80
C0
00
00
00
80
80
80
80
80
80
80
80
80
80
80
80
80
ENDCHAR
STARTCHAR 006A
ENCODING 106
SWIDTH 200 0
DWIDTH 5 0
BBX 5 22 -1 -4
BITMAP
18
00
00
00
10
10
10
10
10
10
10
10
10
10
10
10
10
10
10
10
10
F0
ENDCHAR
STARTCHAR 006B
ENCODING 107
SWIDTH 440 0
DWIDTH 11 0
BBX 8 19 2 0
BITMAP
80
80
80
80
80
80
83
84
88
90
A0
C0
C0
A0
90
88
84
82
81
ENDCHAR
STARTCHAR 006C
ENCODING 108
SWIDTH 280 0
DWIDTH 7 0
BBX 4 19 2 0
BITMAP
80
80
80
80
80
80
80
80
80
80
80
80
80
80
80
80
80
80
70
ENDCHAR
STARTCHAR 006D
ENCODING 109
SWIDTH 960 0
DWIDTH 24 0
BBX 21 13 2 1
BITMAP
9B86E0
A04810
C03010
802008
802008
802008
802008
802008
802008
802008
802008
802008
802008
ENDCHAR
STARTCHAR 006E
ENCODING 110
SWIDTH 600 0
DWIDTH 15 0
BBX 12 14 2 0
BITMAP
0600
9B80
A040
C020
8020
8020
8010
8010
8010
8010
8010
8010
8010
8010
ENDCHAR
STARTCHAR 006F
ENCODING 111
SWIDTH 600 0
DWIDTH 15 0
BBX 12 14 2 0
BITMAP
0400
3B80
4040
C020
8020
8020
8010
8010
8020
8020
8020
4040
60C0
1F00
ENDCHAR
STARTCHAR 0070
ENCODING 112
SWIDTH 600 0
DWIDTH 15 0
BBX 12 19 2 -5
BITMAP
0200
9DC0
A060
C020
C010
8010
8010
8010
8010
8010
C010
C020
B040
8F80
8000
8000
8000
8000
8000
ENDCHAR
STARTCHAR 0071
ENCODING 113
SWIDTH 600 0
DWIDTH 15 0
BBX 12 19 1 -5
BITMAP
0200
1DD0
2030
4030
4010
4010
8010
8010
8010
4010
4010
2030
3050
0F90
0010
0010
0010
0010
0010
ENDCHAR
STARTCHAR 0072
ENCODING 114
SWIDTH 280 0
DWIDTH 7 0
BBX 6 13 2 0
BITMAP
BC
C0
80
80
80
80
80
80
80
80
80
80
80
ENDCHAR
STARTCHAR 0073
ENCODING 115
SWIDTH 480 0
DWIDTH 12 0
BBX 10 14 1 0
BITMAP
0C00
3300
4080
4040
4040
4000
3000
0F00
00C0
0040
8040
4040
6080
1F00
ENDCHAR
STARTCHAR 0074
ENCODING 116
SWIDTH 360 0
DWIDTH 9 0
BBX 7 17 1 1
BITMAP
20
20
20
20
FE
20
20
20
20
20
20
20
20
20
20
10
1E
ENDCHAR
STARTCHAR 0075
ENCODING 117
SWIDTH 600 0
DWIDTH 15 0
BBX 11 13 2 0
BITMAP
8020
8020
8020
8020
8020
8020
8020
8020
8020
8020
4060
20A0
1F20
ENDCHAR
STARTCHAR 0076
ENCODING 118
SWIDTH 520 0
DWIDTH 13 0
BBX 11 13 1 0
BITMAP
8020
4020
4020
4040
2040
2080
1080
1080
1100
0900
0A00
0600
0600
ENDCHAR
STARTCHAR 0077
ENCODING 119
SWIDTH 800 0
DWIDTH 20 0
BBX 18 13 1 0
BITMAP
804040
40C040
40C080
412080
412080
212080
221100
221100
121100
140A00
140A00
0C0A00
0C0400
ENDCHAR
STARTCHAR 0078
ENCODING 120
SWIDTH 520 0
DWIDTH 13 0
BBX 10 13 1 0
BITMAP
C040
40C0
2080
1100
1200
0A00
0400
0A00
1200
1100
2080
4040
C040
ENDCHAR
STARTCHAR 0079
ENCODING 121
SWIDTH 520 0
DWIDTH 13 0
BBX 11 18 1 -5
BITMAP
8020
4020
4040
4040
2080
2080
1100
1100
1100
0A00
0A00
0400
0400
0800
0800
1000
3000
4000
ENDCHAR
STARTCHAR 007A
ENCODING 122
SWIDTH 480 0
DWIDTH 12 0
BBX 10 13 1 0
BITMAP
7FC0
0040
0080
0100
0200
0200
0400
0800
1000
2000
2000
4000
FFC0
ENDCHAR
STARTCHAR 007B
ENCODING 123
SWIDTH 440 0
DWIDTH 11 0
BBX 6 25 4 -5
BITMAP
3C
40
40
40
40
40
40
40
40
40
40
40
C0
40
40
40
40
40
40
40
40
40
40
40
3C
ENDCHAR
STARTCHAR 007C
ENCODING 124
SWIDTH 240 0
DWIDTH 6 0
BBX 1 30 3 -6
BITMAP
80
80
80
80
80
80
80
80
80
80
80
80
80
80
80
80
80
80
80
80
80
80
80
80
80
80
80
80
80
80
ENDCHAR
STARTCHAR 007D
ENCODING 125
SWIDTH 480 0
DWIDTH 12 0
BBX 6 25 4 -5
BITMAP
F0
08
08
08
08
08
08
08
08
08
08
08
0C
08
08
08
08
08
08
08
08
08
08
08
F0
ENDCHAR
STARTCHAR 007E
ENCODING 126
SWIDTH 520 0
DWIDTH 13 0
BBX 8 2 3 9
BITMAP
61
9E
ENDCHAR
STARTCHAR 00A0
ENCODING 160
SWIDTH 200 0
DWIDTH 5 0
BBX 0 0 0 0
BITMAP
ENDCHAR
STARTCHAR 00A1
ENCODING 161
SWIDTH 160 0
DWIDTH 4 0
BBX 2 19 2 -6
BITMAP
C0
00
00
80
80
80
80
80
80
80
80
80
80
80
80
80
80
80
80
ENDCHAR
STARTCHAR 00A2
ENCODING 162
SWIDTH 600 0
DWIDTH 15 0
BBX 11 17 2 -2
BITMAP
0400
0600
3D80
4440
8420
8420
8400
8400
8400
8400
8420
8420
4440
64C0
1F00
0400
0400
ENDCHAR
STARTCHAR 00A3
ENCODING 163
SWIDTH 560 0
DWIDTH 14 0
BBX 12 18 1 0
BITMAP
0F00
30C0
2060
4020
4020
4020
4000
2000
3000
1000
7F80
0800
0800
0800
0800
1000
2000
FFF0
ENDCHAR
STARTCHAR 00A4
ENCODING 164
SWIDTH 520 0
DWIDTH 13 0
BBX 9 10 2 4
BITMAP
8C80
7380
4080
8080
8080
8080
8080
4080
6380
9C00
ENDCHAR
STARTCHAR 00A5
ENCODING 165
SWIDTH 600 0
DWIDTH 15 0
BBX 12 18 1 0
BITMAP
8010
4010
4020
2020
2040
1040
1080
0880
0900
0500
0600
3BC0
0200
3FE0
0200
0200
0200
0200
ENDCHAR
STARTCHAR 00A6
ENCODING 166
SWIDTH 240 0
DWIDTH 6 0
BBX 1 30 3 -6
BITMAP
80
80
80
80
80
80
80
80
80
80
80
80
80
00
00
00
00
80
80
80
80
80
80
80
80
80
80
80
80
80
ENDCHAR
STARTCHAR 00A7
ENCODING 167
SWIDTH 520 0
DWIDTH 13 0
BBX 10 18 2 0
BITMAP
3E00
4100
8080
8080
8000
6000
7F00
8080
8040
8040
8040
7C80
0380
0080
8040
8080
4080
3F00
ENDCHAR
STARTCHAR 00A8
ENCODING 168
SWIDTH 240 0
DWIDTH 6 0
BBX 5 2 1 16
BITMAP
80
98
ENDCHAR
STARTCHAR 00A9
ENCODING 169
SWIDTH 800 0
DWIDTH 20 0
BBX 18 18 1 0
BITMAP
03F000
0C0C00
100300
204100
43B880
440840
8C0440
880040
880040
880040
880040
880440
440440
431880
20C180
100300
0C0600
03F800
ENDCHAR
STARTCHAR 00AA
ENCODING 170
SWIDTH 120 0
DWIDTH 3 0
BBX 3 3 0 10
BITMAP
E0
A0
E0
ENDCHAR
STARTCHAR 00AB
ENCODING 171
SWIDTH 560 0
DWIDTH 14 0
BBX 12 10 1 3
BITMAP
0C30
1860
30C0
6180
C300
4100
2080
1040
0820
0410
ENDCHAR
STARTCHAR 00AC
ENCODING 172
SWIDTH 640 0
DWIDTH 16 0
BBX 12 5 2 7
BITMAP
FFF0
0010
0010
0010
0010
ENDCHAR
STARTCHAR 00AD
ENCODING 173
SWIDTH 600 0
DWIDTH 15 0
BBX 9 1 3 7
BITMAP
FF80
ENDCHAR
STARTCHAR 00AE
ENCODING 174
SWIDTH 320 0
DWIDTH 8 0
BBX 6 7 1 11
BITMAP
10
6C
B4
B4
B4
44
30
ENDCHAR
STARTCHAR 00AF
ENCODING 175
SWIDTH 320 0
DWIDTH 8 0
BBX 7 1 1 16
BITMAP
FE
ENDCHAR
STARTCHAR 00B0
ENCODING 176
SWIDTH 240 0
DWIDTH 6 0
BBX 5 4 1 17
BITMAP
70
88
90
70
ENDCHAR
STARTCHAR 00B1
ENCODING 177
SWIDTH 600 0
DWIDTH 15 0
BBX 9 12 3 0
BITMAP
0800
0800
0800
0800
FF80
0800
0800
0800
0800
0000
0000
FF80
ENDCHAR
STARTCHAR 00B2
ENCODING 178
SWIDTH 280 0
DWIDTH 7 0
BBX 6 10 1 9
BITMAP
70
88
84
08
08
10
20
40
80
FC
ENDCHAR
STARTCHAR 00B3
ENCODING 179
SWIDTH 280 0
DWIDTH 7 0
BBX 6 10 1 9
BITMAP
78
88
04
04
38
08
04
04
88
70
ENDCHAR
STARTCHAR 00B4
ENCODING 180
SWIDTH 200 0
DWIDTH 5 0
BBX 3 4 1 16
BITMAP
20
40
40
80
ENDCHAR
STARTCHAR 00B5
ENCODING 181
SWIDTH 600 0
DWIDTH 15 0
BBX 13 18 2 -5
BITMAP
8040
8040
8040
8040
8040
8040
8040
8040
8040
8040
80C0
C140
BE38
8000
8000
8000
8000
8000
ENDCHAR
STARTCHAR 00B6
ENCODING 182
SWIDTH 480 0
DWIDTH 12 0
BBX 9 18 1 0
BITMAP
0F80
7E80
FE80
FE80
FE80
FE80
FE80
7E80
3E80
0280
0280
0280
0280
0280
0280
0280
0280
0280
ENDCHAR
STARTCHAR 00B7
ENCODING 183
SWIDTH 240 0
DWIDTH 6 0
BBX 2 2 2 8
BITMAP
C0
40
ENDCHAR
STARTCHAR 00B8
ENCODING 184
SWIDTH 200 0
DWIDTH 5 0
BBX 4 6 1 -6
BITMAP
80
80
F0
10
10
E0
ENDCHAR
STARTCHAR 00B9
ENCODING 185
SWIDTH 200 0
DWIDTH 5 0
BBX 4 9 1 10
BITMAP
40
C0
40
40
40
40
40
40
F0
ENDCHAR
STARTCHAR 00BA
ENCODING 186
SWIDTH 120 0
DWIDTH 3 0
BBX 4 3 0 10
BITMAP
E0
90
60
ENDCHAR
STARTCHAR 00BB
ENCODING 187
SWIDTH 560 0
DWIDTH 14 0
BBX 11 10 2 3
BITMAP
8200
4100
2080
1040
0820
1820
3040
2080
4100
8200
ENDCHAR
STARTCHAR 00BC
ENCODING 188
SWIDTH 760 0
DWIDTH 19 0
BBX 17 18 1 0
BITMAP
200400
600400
A00800
200800
201000
202000
202000
204000
F04000
008100
010300
010500
020500
020900
041100
081F80
080100
100100
ENDCHAR
STARTCHAR 00BD
ENCODING 189
SWIDTH 760 0
DWIDTH 19 0
BBX 18 18 1 0
BITMAP
200000
600400
A00800
200800
201000
201000
202000
204000
F04000
008780
008880
010840
020080
020080
040100
040200
080400
080FC0
ENDCHAR
STARTCHAR 00BE
ENCODING 190
SWIDTH 840 0
DWIDTH 21 0
BBX 19 18 1 0
BITMAP
300000
480200
840400
040400
180800
080800
041000
842000
482000
0040C0
004140
008140
010240
010440
020440
0207E0
040040
080040
ENDCHAR
STARTCHAR 00BF
ENCODING 191
SWIDTH 560 0
DWIDTH 14 0
BBX 11 18 2 -6
BITMAP
0400
0400
0000
0000
0000
0400
0800
0800
1000
2000
4000
8000
8000
8020
8020
8040
4080
3F00
ENDCHAR
STARTCHAR 00C0
ENCODING 192
SWIDTH 680 0
DWIDTH 17 0
BBX 15 23 1 0
BITMAP
0400
0400
0200
0100
0000
0100
0100
0280
0280
0440
0440
0440
0820
0820
1010
1010
1FF0
2008
2008
2004
4004
4004
8002
ENDCHAR
STARTCHAR 00C1
ENCODING 193
SWIDTH 680 0
DWIDTH 17 0
BBX 15 23 1 0
BITMAP
0040
0040
0080
0100
0000
0100
0100
0280
0280
0440
0440
0440
0820
0820
1010
1010
1FF0
2008
2008
2004
4004
4004
8002
ENDCHAR
STARTCHAR 00C2
ENCODING 194
SWIDTH 680 0
DWIDTH 17 0
BBX 15 23 1 0
BITMAP
0100
0280
0440
0820
0000
0100
0100
0280
0280
0440
0440
0440
0820
0820
1010
1010
1FF0
2008
2008
2004
4004
4004
8002
ENDCHAR
STARTCHAR 00C3
ENCODING 195
SWIDTH 680 0
DWIDTH 17 0
BBX 15 22 1 0
BITMAP
0720
08C0
0000
0000
0100
0100
0280
0280
0440
0440
0440
0820
0820
1010
1010
1FF0
2008
2008
2004
4004
4004
8002
ENDCHAR
STARTCHAR 00C4
ENCODING 196
SWIDTH 680 0
DWIDTH 17 0
BBX 15 22 1 0
BITMAP
04C0
0440
0000
0000
0100
0100
0280
0280
0440
0440
0440
0820
0820
1010
1010
1FF0
2008
2008
2004
4004
4004
8002
ENDCHAR
STARTCHAR 00C5
ENCODING 197
SWIDTH 680 0
DWIDTH 17 0
BBX 15 24 1 0
BITMAP
0100
0680
0480
0380
0000
0000
0100
0100
0280
0280
0440
0440
0440
0820
0820
1010
1010
1FF0
2008
2008
2004
4004
4004
8002
ENDCHAR
STARTCHAR 00C6
ENCODING 198
SWIDTH 920 0
DWIDTH 23 0
BBX 21 18 1 0
BITMAP
003FF8
005000
005000
009000
009000
011000
021000
021000
041000
041FE0
081000
0FF000
101000
201000
201000
401000
401000
801FF8
ENDCHAR
STARTCHAR 00C7
ENCODING 199
SWIDTH 720 0
DWIDTH 18 0
BBX 15 24 2 -6
BITMAP
07C0
1830
2008
4004
4004
8002
8000
8000
8000
8000
8000
8000
8000
8004
4004
2008
1010
0FE0
0100
0100
00E0
0020
0020
01C0
ENDCHAR
STARTCHAR 00C8
ENCODING 200
SWIDTH 560 0
DWIDTH 14 0
BBX 10 23 2 0
BITMAP
1000
1000
0800
0000
0000
FFC0
8000
8000
8000
8000
8000
8000
8000
8000
FF80
8000
8000
8000
8000
8000
8000
8000
FFC0
ENDCHAR
STARTCHAR 00C9
ENCODING 201
SWIDTH 560 0
DWIDTH 14 0
BBX 10 23 2 0
BITMAP
0100
0200
0200
0400
0000
FFC0
8000
8000
8000
8000
8000
8000
8000
8000
FF80
8000
8000
8000
8000
8000
8000
8000
FFC0
ENDCHAR
STARTCHAR 00CA
ENCODING 202
SWIDTH 560 0
DWIDTH 14 0
BBX 10 23 2 0
BITMAP
0400
0A00
1100
2080
0000
FFC0
8000
8000
8000
8000
8000
8000
8000
8000
FF80
8000
8000
8000
8000
8000
8000
8000
FFC0
ENDCHAR
STARTCHAR 00CB
ENCODING 203
SWIDTH 560 0
DWIDTH 14 0
BBX 10 22 2 0
BITMAP
1300
1300
0000
0000
FFC0
8000
8000
8000
8000
8000
8000
8000
8000
FF80
8000
8000
8000
8000
8000
8000
8000
FFC0
ENDCHAR
STARTCHAR 00CC
ENCODING 204
SWIDTH 200 0
DWIDTH 5 0
BBX 3 23 0 0
BITMAP
80
40
40
20
00
20
20
20
20
20
20
20
20
20
20
20
20
20
20
20
20
20
20
ENDCHAR
STARTCHAR 00CD
ENCODING 205
SWIDTH 200 0
DWIDTH 5 0
BBX 4 23 2 0
BITMAP
30
20
40
00
00
80
80
80
80
80
80
80
80
80
80
80
80
80
80
80
80
80
80
ENDCHAR
STARTCHAR 00CE
ENCODING 206
SWIDTH 200 0
DWIDTH 5 0
BBX 7 23 -1 0
BITMAP
10
28
44
C2
00
10
10
10
10
10
10
10
10
10
10
10
10
10
10
10
10
10
10
ENDCHAR
STARTCHAR 00CF
ENCODING 207
SWIDTH 200 0
DWIDTH 5 0
BBX 5 22 0 0
BITMAP
C8
C8
00
00
20
20
20
20
20
20
20
20
20
20
20
20
20
20
20
20
20
20
ENDCHAR
STARTCHAR 00D0
ENCODING 208
SWIDTH 720 0
DWIDTH 18 0
BBX 15 18 2 0
BITMAP
7C00
43E0
4010
4008
4004
4004
4004
4002
4002
F802
4002
4002
4004
4004
4008
4008
4020
7FC0
ENDCHAR
STARTCHAR 00D1
ENCODING 209
SWIDTH 720 0
DWIDTH 18 0
BBX 14 22 2 0
BITMAP
0E40
09C0
0000
0000
8004
C004
A004
A004
9004
8804
8C04
8404
8204
8104
8104
8084
8044
8024
8024
8014
800C
800C
ENDCHAR
STARTCHAR 00D2
ENCODING 210
SWIDTH 720 0
DWIDTH 18 0
BBX 15 23 2 0
BITMAP
0400
0400
0200
0000
0000
07C0
1830
2008
4004
8004
8002
8002
8002
8002
8002
8002
8002
8002
8004
4004
6008
3030
0FE0
ENDCHAR
STARTCHAR 00D3
ENCODING 211
SWIDTH 720 0
DWIDTH 18 0
BBX 15 23 2 0
BITMAP
0040
0080
0080
0100
0000
07C0
1830
2008
4004
8004
8002
8002
8002
8002
8002
8002
8002
8002
8004
4004
6008
3030
0FE0
ENDCHAR
STARTCHAR 00D4
ENCODING 212
SWIDTH 720 0
DWIDTH 18 0
BBX 15 23 2 0
BITMAP
0100
0280
0440
0820
0000
07C0
1830
2008
4004
8004
8002
8002
8002
8002
8002
8002
8002
8002
8004
4004
6008
3030
0FE0
ENDCHAR
STARTCHAR 00D5
ENCODING 213
SWIDTH 720 0
DWIDTH 18 0
BBX 15 22 2 0
BITMAP
0640
09C0
0000
0000
07C0
1830
2008
4004
8004
8002
8002
8002
8002
8002
8002
8002
8002
8004
4004
6008
3030
0FE0
ENDCHAR
STARTCHAR 00D6
ENCODING 214
SWIDTH 720 0
DWIDTH 18 0
BBX 15 22 2 0
BITMAP
04C0
04C0
0000
0000
07C0
1830
2008
4004
8004
8002
8002
8002
8002
8002
8002
8002
8002
8004
4004
6008
3030
0FE0
ENDCHAR
STARTCHAR 00D7
ENCODING 215
SWIDTH 520 0
DWIDTH 13 0
BBX 7 7 3 4
BITMAP
C2
64
38
18
2C
46
82
ENDCHAR
STARTCHAR 00D8
ENCODING 216
SWIDTH 720 0
DWIDTH 18 0
BBX 15 20 2 -1
BITMAP
0004
07C8
1838
2018
4024
8024
8042
8042
8082
8102
8102
8202
8402
8402
8804
5004
7008
3030
4FC0
4000
ENDCHAR
STARTCHAR 00D9
ENCODING 217
SWIDTH 680 0
DWIDTH 17 0
BBX 13 23 2 0
BITMAP
0800
0800
0400
0200
0000
8008
8008
8008
8008
8008
8008
8008
8008
8008
8008
8008
8008
8008
8008
4010
4010
2020
1FC0
ENDCHAR
STARTCHAR 00DA
ENCODING 218
SWIDTH 680 0
DWIDTH 17 0
BBX 13 23 2 0
BITMAP
0080
0080
0100
0200
0000
8008
8008
8008
8008
8008
8008
8008
8008
8008
8008
8008
8008
8008
8008
4010
4010
2020
1FC0
ENDCHAR
STARTCHAR 00DB
ENCODING 219
SWIDTH 680 0
DWIDTH 17 0
BBX 13 23 2 0
BITMAP
0200
0500
0880
1040
0000
8008
8008
8008
8008
8008
8008
8008
8008
8008
8008
8008
8008
8008
8008
4010
4010
2020
1FC0
ENDCHAR
STARTCHAR 00DC
ENCODING 220
SWIDTH 680 0
DWIDTH 17 0
BBX 13 22 2 0
BITMAP
0C80
0880
0000
0000
8008
8008
8008
8008
8008
8008
8008
8008
8008
8008
8008
8008
8008
8008
4010
4010
2020
1FC0
ENDCHAR
STARTCHAR 00DD
ENCODING 221
SWIDTH 560 0
DWIDTH 14 0
BBX 12 23 1 0
BITMAP
0080
0100
0100
0200
0000
8010
4010
4020
2020
2040
1040
1080
0880
0900
0500
0600
0200
0200
0200
0200
0200
0200
0200
ENDCHAR
STARTCHAR 00DE
ENCODING 222
SWIDTH 560 0
DWIDTH 14 0
BBX 12 18 2 0
BITMAP
8000
8000
8000
8000
FF80
8040
8020
8020
8020
8010
8020
8020
8020
80C0
FF00
8000
8000
8000
ENDCHAR
STARTCHAR 00DF
ENCODING 223
SWIDTH 520 0
DWIDTH 13 0
BBX 10 18 2 0
BITMAP
1E00
6180
4080
8080
8040
8040
8080
8180
9E00
8300
8080
8040
8040
8040
8040
8040
8080
9F00
ENDCHAR
STARTCHAR 00E0
ENCODING 224
SWIDTH 600 0
DWIDTH 15 0
BBX 12 19 1 0
BITMAP
0800
0800
0400
0600
0000
0200
1DD0
2030
4030
4010
4010
8010
8010
8010
4010
4010
2030
3050
0F90
ENDCHAR
STARTCHAR 00E1
ENCODING 225
SWIDTH 600 0
DWIDTH 15 0
BBX 12 19 1 0
BITMAP
0040
0080
0100
0100
0000
0200
1DD0
2030
4030
4010
4010
8010
8010
8010
4010
4010
2030
3050
0F90
ENDCHAR
STARTCHAR 00E2
ENCODING 226
SWIDTH 600 0
DWIDTH 15 0
BBX 12 18 1 0
BITMAP
0700
0C80
08C0
0000
0200
1DD0
2030
4030
4010
4010
8010
8010
8010
4010
4010
2030
3050
0F90
ENDCHAR
STARTCHAR 00E3
ENCODING 227
SWIDTH 600 0
DWIDTH 15 0
BBX 12 18 1 0
BITMAP
0C40
1380
0000
0000
0200
1DD0
2030
4030
4010
4010
8010
8010
8010
4010
4010
2030
3050
0F90
ENDCHAR
STARTCHAR 00E4
ENCODING 228
SWIDTH 600 0
DWIDTH 15 0
BBX 12 17 1 1
BITMAP
0D80
0000
0000
0200
1DD0
2030
4030
4010
4010
8010
8010
8010
4010
4010
2030
3050
0F90
ENDCHAR
STARTCHAR 00E5
ENCODING 229
SWIDTH 600 0
DWIDTH 15 0
BBX 12 19 1 0
BITMAP
0700
0880
0500
0200
0000
0200
1DD0
2030
4030
4010
4010
8010
8010
8010
4010
4010
2030
3050
0F90
ENDCHAR
STARTCHAR 00E6
ENCODING 230
SWIDTH 960 0
DWIDTH 24 0
BBX 22 14 1 0
BITMAP
000100
1F8670
204810
405008
002008
002004
002004
3FFFFC
402000
402000
803008
405008
408810
3F07E0
ENDCHAR
STARTCHAR 00E7
ENCODING 231
SWIDTH 560 0
DWIDTH 14 0
BBX 11 20 2 -6
BITMAP
0600
3980
4040
8020
8020
8000
8000
8000
8000
8020
8020
4040
60C0
1F00
0400
0400
0F00
0080
0080
0700
ENDCHAR
STARTCHAR 00E8
ENCODING 232
SWIDTH 560 0
DWIDTH 14 0
BBX 11 19 2 0
BITMAP
1000
1000
0800
0800
0000
0400
3B80
4040
C040
8020
8020
8020
FFE0
8000
8000
8020
4040
60C0
1F00
ENDCHAR
STARTCHAR 00E9
ENCODING 233
SWIDTH 560 0
DWIDTH 14 0
BBX 11 19 2 0
BITMAP
0180
0100
0200
0200
0000
0400
3B80
4040
C040
8020
8020
8020
FFE0
8000
8000
8020
4040
60C0
1F00
ENDCHAR
STARTCHAR 00EA
ENCODING 234
SWIDTH 560 0
DWIDTH 14 0
BBX 11 18 2 0
BITMAP
0E00
1900
1180
2000
0400
3B80
4040
C040
8020
8020
8020
FFE0
8000
8000
8020
4040
60C0
1F00
ENDCHAR
STARTCHAR 00EB
ENCODING 235
SWIDTH 560 0
DWIDTH 14 0
BBX 11 17 2 1
BITMAP
1B00
0000
0000
0400
3B80
4040
C040
8020
8020
8020
FFE0
8000
8000
8020
4040
60C0
1F00
ENDCHAR
STARTCHAR 00EC
ENCODING 236
SWIDTH 200 0
DWIDTH 5 0
BBX 3 19 0 0
BITMAP
80
80
40
20
00
00
20
20
20
20
20
20
20
20
20
20
20
20
20
ENDCHAR
STARTCHAR 00ED
ENCODING 237
SWIDTH 200 0
DWIDTH 5 0
BBX 4 19 2 0
BITMAP
10
20
40
40
00
00
80
80
80
80
80
80
80
80
80
80
80
80
80
ENDCHAR
STARTCHAR 00EE
ENCODING 238
SWIDTH 200 0
DWIDTH 5 0
BBX 6 18 0 0
BITMAP
70
48
84
00
00
20
20
20
20
20
20
20
20
20
20
20
20
20
ENDCHAR
STARTCHAR 00EF
ENCODING 239
SWIDTH 200 0
DWIDTH 5 0
BBX 5 17 0 1
BITMAP
C8
00
00
00
20
20
20
20
20
20
20
20
20
20
20
20
20
ENDCHAR
STARTCHAR 00F0
ENCODING 240
SWIDTH 600 0
DWIDTH 15 0
BBX 12 19 1 0
BITMAP
0730
00C0
0140
0220
0010
0210
1DD0
2030
4030
4010
4010
8010
8010
8010
4010
4010
2020
3040
0F80
ENDCHAR
STARTCHAR 00F1
ENCODING 241
SWIDTH 600 0
DWIDTH 15 0
BBX 12 18 2 0
BITMAP
1880
1780
0000
0000
0600
9B80
A040
C020
8020
8020
8010
8010
8010
8010
8010
8010
8010
8010
ENDCHAR
STARTCHAR 00F2
ENCODING 242
SWIDTH 600 0
DWIDTH 15 0
BBX 12 19 2 0
BITMAP
1000
1000
0800
0800
0000
0400
3B80
4040
C020
8020
8020
8010
8010
8020
8020
8020
4040
60C0
1F00
ENDCHAR
STARTCHAR 00F3
ENCODING 243
SWIDTH 600 0
DWIDTH 15 0
BBX 12 19 2 0
BITMAP
0180
0100
0200
0200
0000
0400
3B80
4040
C020
8020
8020
8010
8010
8020
8020
8020
4040
60C0
1F00
ENDCHAR
STARTCHAR 00F4
ENCODING 244
SWIDTH 600 0
DWIDTH 15 0
BBX 12 18 2 0
BITMAP
0E00
1900
1180
2000
0400
3B80
4040
C020
8020
8020
8010
8010
8020
8020
8020
4040
60C0
1F00
ENDCHAR
STARTCHAR 00F5
ENCODING 245
SWIDTH 600 0
DWIDTH 15 0
BBX 12 18 2 0
BITMAP
1880
2500
0200
0000
0400
3B80
4040
C020
8020
8020
8010
8010
8020
8020
8020
4040
60C0
1F00
ENDCHAR
STARTCHAR 00F6
ENCODING 246
SWIDTH 600 0
DWIDTH 15 0
BBX 12 17 2 1
BITMAP
1B00
0000
0000
0400
3B80
4040
C020
8020
8020
8010
8010
8020
8020
8020
4040
60C0
1F00
ENDCHAR
STARTCHAR 00F7
ENCODING 247
SWIDTH 600 0
DWIDTH 15 0
BBX 9 10 2 3
BITMAP
0800
0800
0000
0000
0000
FF80
0000
0000
0800
0800
ENDCHAR
STARTCHAR 00F8
ENCODING 248
SWIDTH 600 0
DWIDTH 15 0
BBX 12 16 2 -1
BITMAP
0040
0440
3B80
40C0
8120
8220
8220
8410
8410
8820
8820
9020
5040
20C0
3F00
4000
ENDCHAR
STARTCHAR 00F9
ENCODING 249
SWIDTH 600 0
DWIDTH 15 0
BBX 11 19 2 0
BITMAP
2000
1000
0800
0800
0000
0000
8020
8020
8020
8020
8020
8020
8020
8020
8020
8020
4060
20A0
1F20
ENDCHAR
STARTCHAR 00FA
ENCODING 250
SWIDTH 600 0
DWIDTH 15 0
BBX 11 19 2 0
BITMAP
0100
0100
0200
0400
0000
0000
8020
8020
8020
8020
8020
8020
8020
8020
8020
8020
4060
20A0
1F20
ENDCHAR
STARTCHAR 00FB
ENCODING 251
SWIDTH 600 0
DWIDTH 15 0
BBX 11 18 2 0
BITMAP
0C00
1200
2100
0000
0000
8020
8020
8020
8020
8020
8020
8020
8020
8020
8020
4060
20A0
1F20
ENDCHAR
STARTCHAR 00FC
ENCODING 252
SWIDTH 600 0
DWIDTH 15 0
BBX 11 18 2 0
BITMAP
1000
1300
0000
0000
0000
8020
8020
8020
8020
8020
8020
8020
8020
8020
8020
4060
20A0
1F20
ENDCHAR
STARTCHAR 00FD
ENCODING 253
SWIDTH 520 0
DWIDTH 13 0
BBX 11 24 1 -5
BITMAP
0100
0100
0200
0400
0000
0000
8020
4020
4040
4040
2080
2080
1100
1100
1100
0A00
0A00
0400
0400
0800
0800
1000
3000
4000
ENDCHAR
STARTCHAR 00FE
ENCODING 254
SWIDTH 600 0
DWIDTH 15 0
BBX 12 25 2 -6
BITMAP
8000
8000
8000
8000
8000
8200
9DC0
A060
C020
C010
8010
8010
8010
8010
8010
C010
C020
B040
8F80
8000
8000
8000
8000
8000
8000
ENDCHAR
STARTCHAR 00FF
ENCODING 255
SWIDTH 520 0
DWIDTH 13 0
BBX 11 23 1 -5
BITMAP
1000
1B00
0000
0000
0000
8020
4020
4040
4040
2080
2080
1100
1100
1100
0A00
0A00
0400
0400
0800
0800
1000
3000
4000
ENDCHAR
STARTCHAR 0100
ENCODING 256
SWIDTH 680 0
DWIDTH 17 0
BBX 15 21 1 0
BITMAP
0FE0
0000
0000
0100
0100
0280
0280
0440
0440
0440
0820
0820
1010
1010
1FF0
2008
2008
2004
4004
4004
8002
ENDCHAR
STARTCHAR 0101
ENCODING 257
SWIDTH 600 0
DWIDTH 15 0
BBX 12 17 1 0
BITMAP
1FC0
0000
0000
0200
1DD0
2030
4030
4010
4010
8010
8010
8010
4010
4010
2030
3050
0F90
ENDCHAR
STARTCHAR 0102
ENCODING 258
SWIDTH 680 0
DWIDTH 17 0
BBX 15 22 1 0
BITMAP
0820
06C0
0100
0000
0100
0100
0280
0280
0440
0440
0440
0820
0820
1010
1010
1FF0
2008
2008
2004
4004
4004
8002
ENDCHAR
STARTCHAR 0103
ENCODING 259
SWIDTH 600 0
DWIDTH 15 0
BBX 12 18 1 0
BITMAP
1040
08C0
0700
0000
0200
1DD0
2030
4030
4010
4010
8010
8010
8010
4010
4010
2030
3050
0F90
ENDCHAR
STARTCHAR 0104
ENCODING 260
SWIDTH 680 0
DWIDTH 17 0
BBX 16 22 1 -4
BITMAP
0100
0100
0280
0280
0440
0440
0440
0820
0820
1010
1010
1FF0
2008
2008
2004
4004
4004
8002
0004
0004
0004
0003
ENDCHAR
STARTCHAR 0105
ENCODING 261
SWIDTH 600 0
DWIDTH 15 0
BBX 13 18 1 -4
BITMAP
0200
1DD0
2030
4030
4010
4010
8010
8010
8010
4010
4010
2030
3050
0F90
0010
0020
0020
0018
ENDCHAR
STARTCHAR 0106
ENCODING 262
SWIDTH 720 0
DWIDTH 18 0
BBX 15 23 2 0
BITMAP
0040
0080
0100
0100
0000
07C0
1830
2008
4004
4004
8002
8000
8000
8000
8000
8000
8000
8000
8004
4004
2008
1010
0FE0
ENDCHAR
STARTCHAR 0107
ENCODING 263
SWIDTH 560 0
DWIDTH 14 0
BBX 11 19 2 0
BITMAP
0080
0100
0200
0200
0000
0600
3980
4040
8020
8020
8000
8000
8000
8000
8020
8020
4040
60C0
1F00
ENDCHAR
STARTCHAR 010A
ENCODING 266
SWIDTH 720 0
DWIDTH 18 0
BBX 15 22 2 0
BITMAP
0300
0300
0000
0000
07C0
1830
2008
4004
4004
8002
8000
8000
8000
8000
8000
8000
8000
8004
4004
2008
1010
0FE0
ENDCHAR
STARTCHAR 010B
ENCODING 267
SWIDTH 560 0
DWIDTH 14 0
BBX 11 18 2 0
BITMAP
0400
0600
0000
0000
0600
3980
4040
8020
8020
8000
8000
8000
8000
8020
8020
4040
60C0
1F00
ENDCHAR
STARTCHAR 010C
ENCODING 268
SWIDTH 720 0
DWIDTH 18 0
BBX 15 23 2 0
BITMAP
0860
0C40
0680
0300
0000
07C0
1830
2008
4004
4004
8002
8000
8000
8000
8000
8000
8000
8000
8004
4004
2008
1010
0FE0
ENDCHAR
STARTCHAR 010D
ENCODING 269
SWIDTH 560 0
DWIDTH 14 0
BBX 11 18 2 0
BITMAP
1180
0900
0600
0000
0600
3980
4040
8020
8020
8000
8000
8000
8000
8020
8020
4040
60C0
1F00
ENDCHAR
STARTCHAR 010E
ENCODING 270
SWIDTH 680 0
DWIDTH 17 0
BBX 14 23 2 0
BITMAP
1040
0880
0500
0200
0000
FE00
81C0
8030
8010
8008
8004
8004
8004
8004
8004
8004
8004
8004
8008
8008
8010
8060
FF80
ENDCHAR
STARTCHAR 010F
ENCODING 271
SWIDTH 680 0
DWIDTH 17 0
BBX 16 19 1 0
BITMAP
0013
0013
0011
0011
0012
0210
1DD0
2030
4030
4010
4010
8010
8010
8010
4010
4010
2030
3050
0F90
ENDCHAR
STARTCHAR 0110
ENCODING 272
SWIDTH 720 0
DWIDTH 18 0
BBX 15 18 2 0
BITMAP
7C00
43E0
4010
4008
4004
4004
4004
4002
4002
F802
4002
4002
4004
4004
4008
4008
4020
7FC0
ENDCHAR
STARTCHAR 0111
ENCODING 273
SWIDTH 600 0
DWIDTH 15 0
BBX 14 19 1 0
BITMAP
0010
0010
0010
01FC
0010
0210
1DD0
2030
4030
4010
4010
8010
8010
8010
4010
4010
2030
3050
0F90
ENDCHAR
STARTCHAR 0112
ENCODING 274
SWIDTH 560 0
DWIDTH 14 0
BBX 10 21 2 0
BITMAP
3F80
0000
0000
FFC0
8000
8000
8000
8000
8000
8000
8000
8000
FF80
8000
8000
8000
8000
8000
8000
8000
FFC0
ENDCHAR
STARTCHAR 0113
ENCODING 275
SWIDTH 560 0
DWIDTH 14 0
BBX 11 17 2 0
BITMAP
3F80
0000
0000
0400
3B80
4040
C040
8020
8020
8020
FFE0
8000
8000
8020
4040
60C0
1F00
ENDCHAR
STARTCHAR 0116
ENCODING 278
SWIDTH 560 0
DWIDTH 14 0
BBX 10 22 2 0
BITMAP
0400
0400
0000
0000
FFC0
8000
8000
8000
8000
8000
8000
8000
8000
FF80
8000
8000
8000
8000
8000
8000
8000
FFC0
ENDCHAR
STARTCHAR 0117
ENCODING 279
SWIDTH 560 0
DWIDTH 14 0
BBX 11 18 2 0
BITMAP
0400
0400
0000
0000
0400
3B80
4040
C040
8020
8020
8020
FFE0
8000
8000
8020
4040
60C0
1F00
ENDCHAR
STARTCHAR 0118
ENCODING 280
SWIDTH 560 0
DWIDTH 14 0
BBX 11 22 2 -4
BITMAP
FFC0
8000
8000
8000
8000
8000
8000
8000
8000
FF80
8000
8000
8000
8000
8000
8000
8000
FFC0
0040
0080
0080
0060
ENDCHAR
STARTCHAR 0119
ENCODING 281
SWIDTH 560 0
DWIDTH 14 0
BBX 11 18 2 -4
BITMAP
0400
3B80
4040
C040
8020
8020
8020
FFE0
8000
8000
8020
4040
60C0
1F00
0400
0800
0800
0600
ENDCHAR
STARTCHAR 011A
ENCODING 282
SWIDTH 560 0
DWIDTH 14 0
BBX 10 23 2 0
BITMAP
2080
1100
0A00
0400
0000
FFC0
8000
8000
8000
8000
8000
8000
8000
8000
FF80
8000
8000
8000
8000
8000
8000
8000
FFC0
ENDCHAR
STARTCHAR 011B
ENCODING 283
SWIDTH 560 0
DWIDTH 14 0
BBX 11 18 2 0
BITMAP
3180
0B00
0E00
0000
0400
3B80
4040
C040
8020
8020
8020
FFE0
8000
8000
8020
4040
60C0
1F00
ENDCHAR
STARTCHAR 011E
ENCODING 286
SWIDTH 680 0
DWIDTH 17 0
BBX 14 22 2 0
BITMAP
0820
0FC0
0000
0000
07C0
1830
2008
4008
8004
8000
8000
8000
8000
81FC
8004
8004
8004
8004
400C
600C
3034
0FC4
ENDCHAR
STARTCHAR 011F
ENCODING 287
SWIDTH 600 0
DWIDTH 15 0
BBX 11 23 2 -5
BITMAP
2080
1180
0E00
0000
0400
33A0
4060
8060
8020
8020
8020
8020
8020
8020
8060
4060
31A0
0E20
0020
0020
0020
00C0
0F00
ENDCHAR
STARTCHAR 0120
ENCODING 288
SWIDTH 680 0
DWIDTH 17 0
BBX 14 22 2 0
BITMAP
0300
0300
0000
0000
07C0
1830
2008
4008
8004
8000
8000
8000
8000
81FC
8004
8004
8004
8004
400C
600C
3034
0FC4
ENDCHAR
STARTCHAR 0121
ENCODING 289
SWIDTH 600 0
DWIDTH 15 0
BBX 11 23 2 -5
BITMAP
0400
0400
0000
0000
0400
33A0
4060
8060
8020
8020
8020
8020
8020
8020
8060
4060
31A0
0E20
0020
0020
0020
00C0
0F00
ENDCHAR
STARTCHAR 0126
ENCODING 294
SWIDTH 680 0
DWIDTH 17 0
BBX 15 18 1 0
BITMAP
4004
4004
4004
4004
FFFE
4004
4004
4004
4004
7FFC
4004
4004
4004
4004
4004
4004
4004
4004
ENDCHAR
STARTCHAR 0127
ENCODING 295
SWIDTH 600 0
DWIDTH 15 0
BBX 13 19 1 0
BITMAP
4000
4000
4000
FE00
4000
4180
4EE0
5010
6010
6010
4010
4008
4008
4008
4008
4008
4008
4008
4008
ENDCHAR
STARTCHAR 0128
ENCODING 296
SWIDTH 200 0
DWIDTH 5 0
BBX 6 22 0 0
BITMAP
E4
18
00
00
20
20
20
20
20
20
20
20
20
20
20
20
20
20
20
20
20
20
ENDCHAR
STARTCHAR 0129
ENCODING 297
SWIDTH 200 0
DWIDTH 5 0
BBX 6 18 0 0
BITMAP
C4
BC
00
00
00
20
20
20
20
20
20
20
20
20
20
20
20
20
ENDCHAR
STARTCHAR 012A
ENCODING 298
SWIDTH 200 0
DWIDTH 5 0
BBX 7 21 -1 0
BITMAP
FE
00
00
10
10
10
10
10
10
10
10
10
10
10
10
10
10
10
10
10
10
ENDCHAR
STARTCHAR 012B
ENCODING 299
SWIDTH 200 0
DWIDTH 5 0
BBX 7 17 -1 0
BITMAP
FE
00
00
00
10
10
10
10
10
10
10
10
10
10
10
10
10
ENDCHAR
STARTCHAR 012E
ENCODING 302
SWIDTH 200 0
DWIDTH 5 0
BBX 3 22 1 -4
BITMAP
40
40
40
40
40
40
40
40
40
40
40
40
40
40
40
40
40
40
C0
80
80
60
ENDCHAR
STARTCHAR 012F
ENCODING 303
SWIDTH 200 0
DWIDTH 5 0
BBX 3 22 1 -4
BITMAP
40
60
00
00
00
40
40
40
40
40
40
40
40
40
40
40
40
40
80
80
80
60
ENDCHAR
STARTCHAR 0130
ENCODING 304
SWIDTH 200 0
DWIDTH 5 0
BBX 1 22 2 0
BITMAP
80
80
00
00
80
80
80
80
80
80
80
80
80
80
80
80
80
80
80
80
80
80
ENDCHAR
STARTCHAR 0131
ENCODING 305
SWIDTH 200 0
DWIDTH 5 0
BBX 1 13 2 0
BITMAP
80
80
80
80
80
80
80
80
80
80
80
80
80
ENDCHAR
STARTCHAR 0139
ENCODING 313
SWIDTH 520 0
DWIDTH 13 0
BBX 10 23 2 0
BITMAP
3000
2000
4000
0000
0000
8000
8000
8000
8000
8000
8000
8000
8000
8000
8000
8000
8000
8000
8000
8000
8000
8000
FFC0
ENDCHAR
STARTCHAR 013A
ENCODING 314
SWIDTH 280 0
DWIDTH 7 0
BBX 4 25 2 0
BITMAP
10
20
20
40
00
00
80
80
80
80
80
80
80
80
80
80
80
80
80
80
80
80
80
80
70
ENDCHAR
STARTCHAR 013D
ENCODING 317
SWIDTH 520 0
DWIDTH 13 0
BBX 13 23 -1 0
BITMAP
8200
4400
2800
1800
0000
1000
1000
1000
1000
1000
1000
1000
1000
1000
1000
1000
1000
1000
1000
1000
1000
1000
1FF8
ENDCHAR
STARTCHAR 013E
ENCODING 318
SWIDTH 280 0
DWIDTH 7 0
BBX 5 19 2 0
BITMAP
90
B8
88
88
90
80
80
80
80
80
80
80
80
80
80
80
80
80
70
ENDCHAR
STARTCHAR 0143
ENCODING 323
SWIDTH 720 0
DWIDTH 18 0
BBX 14 23 2 0
BITMAP
0040
0080
0100
0100
0000
8004
C004
A004
A004
9004
8804
8C04
8404
8204
8104
8104
8084
8044
8024
8024
8014
800C
800C
ENDCHAR
STARTCHAR 0144
ENCODING 324
SWIDTH 600 0
DWIDTH 15 0
BBX 12 19 2 0
BITMAP
0080
0100
0200
0200
0000
0600
9B80
A040
C020
8020
8020
8010
8010
8010
8010
8010
8010
8010
8010
ENDCHAR
STARTCHAR 0147
ENCODING 327
SWIDTH 720 0
DWIDTH 18 0
BBX 14 23 2 0
BITMAP
0860
0CC0
0480
0300
0000
8004
C004
A004
A004
9004
8804
8C04
8404
8204
8104
8104
8084
8044
8024
8024
8014
800C
800C
ENDCHAR
STARTCHAR 0148
ENCODING 328
SWIDTH 600 0
DWIDTH 15 0
BBX 12 18 2 0
BITMAP
1080
0900
0600
0000
0600
9B80
A040
C020
8020
8020
8010
8010
8010
8010
8010
8010
8010
8010
ENDCHAR
STARTCHAR 014C
ENCODING 332
SWIDTH 720 0
DWIDTH 18 0
BBX 15 21 2 0
BITMAP
0FE0
0000
0000
07C0
1830
2008
4004
8004
8002
8002
8002
8002
8002
8002
8002
8002
8004
4004
6008
3030
0FE0
ENDCHAR
STARTCHAR 014D
ENCODING 333
SWIDTH 600 0
DWIDTH 15 0
BBX 12 17 2 0
BITMAP
3F80
0000
0000
0400
3B80
4040
C020
8020
8020
8010
8010
8020
8020
8020
4040
60C0
1F00
ENDCHAR
STARTCHAR 0152
ENCODING 338
SWIDTH 920 0
DWIDTH 23 0
BBX 21 18 1 0
BITMAP
00FFF8
0F1000
101000
201000
401000
401000
801000
801000
801000
801FF0
801000
801000
401000
401000
201000
201000
181000
07FFF8
ENDCHAR
STARTCHAR 0153
ENCODING 339
SWIDTH 1000 0
DWIDTH 25 0
BBX 22 14 2 0
BITMAP
040080
3B8770
40CC08
C06804
803004
803004
803004
801FFC
803000
803000
803004
404808
608418
1F03E0
ENDCHAR
STARTCHAR 0154
ENCODING 340
SWIDTH 600 0
DWIDTH 15 0
BBX 12 23 2 0
BITMAP
0100
0200
0400
0400
0000
FC00
83C0
8020
8020
8020
8010
8020
8020
8060
8380
FC00
8200
8100
8100
8080
8040
8040
8020
ENDCHAR
STARTCHAR 0155
ENCODING 341
SWIDTH 280 0
DWIDTH 7 0
BBX 6 19 2 0
BITMAP
08
10
20
20
00
00
BC
C0
80
80
80
80
80
80
80
80
80
80
80
ENDCHAR
STARTCHAR 0158
ENCODING 344
SWIDTH 600 0
DWIDTH 15 0
BBX 12 23 2 0
BITMAP
6100
2300
1600
0C00
0000
FC00
83C0
8020
8020
8020
8010
8020
8020
8060
8380
FC00
8200
8100
8100
8080
8040
8040
8020
ENDCHAR
STARTCHAR 0159
ENCODING 345
SWIDTH 280 0
DWIDTH 7 0
BBX 7 18 1 0
BITMAP
84
48
30
00
00
5E
60
40
40
40
40
40
40
40
40
40
40
40
ENDCHAR
STARTCHAR 015A
ENCODING 346
SWIDTH 560 0
DWIDTH 14 0
BBX 12 23 1 0
BITMAP
0080
0080
0100
0200
0000
0F80
3040
2020
4010
4010
4010
4000
2000
1C00
03C0
0020
0010
8010
4010
4010
6010
3020
1FC0
ENDCHAR
STARTCHAR 015B
ENCODING 347
SWIDTH 480 0
DWIDTH 12 0
BBX 10 19 1 0
BITMAP
0100
0100
0200
0400
0000
0C00
3300
4080
4040
4040
4000
3000
0F00
00C0
0040
8040
4040
6080
1F00
ENDCHAR
STARTCHAR 015E
ENCODING 350
SWIDTH 560 0
DWIDTH 14 0
BBX 12 24 1 -6
BITMAP
0F80
3040
2020
4010
4010
4010
4000
2000
1C00
03C0
0020
0010
8010
4010
4010
6010
3020
1FC0
0200
0400
0780
0040
0080
0380
ENDCHAR
STARTCHAR 015F
ENCODING 351
SWIDTH 480 0
DWIDTH 12 0
BBX 10 20 1 -6
BITMAP
0C00
3300
4080
4040
4040
4000
3000
0F00
00C0
0040
8040
4040
6080
1F00
0400
0800
0F00
0080
0080
0700
ENDCHAR
STARTCHAR 0160
ENCODING 352
SWIDTH 560 0
DWIDTH 14 0
BBX 12 23 1 0
BITMAP
1040
0880
0500
0200
0000
0F80
3040
2020
4010
4010
4010
4000
2000
1C00
03C0
0020
0010
8010
4010
4010
6010
3020
1FC0
ENDCHAR
STARTCHAR 0161
ENCODING 353
SWIDTH 480 0
DWIDTH 12 0
BBX 10 18 1 0
BITMAP
2100
1200
0C00
0000
0C00
3300
4080
4040
4040
4000
3000
0F00
00C0
0040
8040
4040
6080
1F00
ENDCHAR
STARTCHAR 0162
ENCODING 354
SWIDTH 560 0
DWIDTH 14 0
BBX 12 24 1 -6
BITMAP
FFF0
0200
0200
0200
0200
0200
0200
0200
0200
0200
0200
0200
0200
0200
0200
0200
0200
0200
0200
0400
0780
0080
0080
0780
ENDCHAR
STARTCHAR 0163
ENCODING 355
SWIDTH 360 0
DWIDTH 9 0
BBX 8 23 1 -5
BITMAP
20
20
20
20
FE
20
20
20
20
20
20
20
20
20
20
10
1E
08
10
1E
01
01
0E
ENDCHAR
STARTCHAR 0164
ENCODING 356
SWIDTH 560 0
DWIDTH 14 0
BBX 12 23 1 0
BITMAP
1040
0880
0500
0200
0000
FFF0
0200
0200
0200
0200
0200
0200
0200
0200
0200
0200
0200
0200
0200
0200
0200
0200
0200
ENDCHAR
STARTCHAR 0165
ENCODING 357
SWIDTH 440 0
DWIDTH 11 0
BBX 10 19 1 0
BITMAP
0180
01C0
2040
2080
2080
2000
FE00
2000
2000
2000
2000
2000
2000
2000
2000
2000
2000
1000
1E00
ENDCHAR
STARTCHAR 0166
ENCODING 358
SWIDTH 560 0
DWIDTH 14 0
BBX 12 18 1 0
BITMAP
FFF0
0200
0200
0200
0200
0200
0200
7FE0
0200
0200
0200
0200
0200
0200
0200
0200
0200
0200
ENDCHAR
STARTCHAR 0167
ENCODING 359
SWIDTH 360 0
DWIDTH 9 0
BBX 7 17 1 1
BITMAP
20
20
20
20
FE
20
20
20
20
FE
20
20
20
20
20
10
1E
ENDCHAR
STARTCHAR 0168
ENCODING 360
SWIDTH 680 0
DWIDTH 17 0
BBX 13 22 2 0
BITMAP
0E40
1180
0000
0000
8008
8008
8008
8008
8008
8008
8008
8008
8008
8008
8008
8008
8008
8008
4010
4010
2020
1FC0
ENDCHAR
STARTCHAR 0169
ENCODING 361
SWIDTH 600 0
DWIDTH 15 0
BBX 11 18 2 0
BITMAP
1800
2500
0200
0000
0000
8020
8020
8020
8020
8020
8020
8020
8020
8020
8020
4060
20A0
1F20
ENDCHAR
STARTCHAR 016A
ENCODING 362
SWIDTH 680 0
DWIDTH 17 0
BBX 13 21 2 0
BITMAP
1FC0
0000
0000
8008
8008
8008
8008
8008
8008
8008
8008
8008
8008
8008
8008
8008
8008
4010
4010
2020
1FC0
ENDCHAR
STARTCHAR 016B
ENCODING 363
SWIDTH 600 0
DWIDTH 15 0
BBX 11 17 2 0
BITMAP
3F80
0000
0000
0000
8020
8020
8020
8020
8020
8020
8020
8020
8020
8020
4060
20A0
1F20
ENDCHAR
STARTCHAR 016E
ENCODING 366
SWIDTH 680 0
DWIDTH 17 0
BBX 13 24 2 0
BITMAP
0300
0D00
0900
0700
0000
0000
8008
8008
8008
8008
8008
8008
8008
8008
8008
8008
8008
8008
8008
8008
4010
4010
2020
1FC0
ENDCHAR
STARTCHAR 016F
ENCODING 367
SWIDTH 600 0
DWIDTH 15 0
BBX 11 19 2 0
BITMAP
0E00
1200
1200
0C00
0000
0000
8020
8020
8020
8020
8020
8020
8020
8020
8020
8020
4060
20A0
1F20
ENDCHAR
STARTCHAR 0172
ENCODING 370
SWIDTH 680 0
DWIDTH 17 0
BBX 13 22 2 -4
BITMAP
8008
8008
8008
8008
8008
8008
8008
8008
8008
8008
8008
8008
8008
8008
4010
4010
2020
1FC0
0200
0400
0400
0300
ENDCHAR
STARTCHAR 0173
ENCODING 371
SWIDTH 600 0
DWIDTH 15 0
BBX 12 17 2 -4
BITMAP
8020
8020
8020
8020
8020
8020
8020
8020
8020
8020
4060
20A0
1F20
0040
0080
0080
0070
ENDCHAR
STARTCHAR 0174
ENCODING 372
SWIDTH 960 0
DWIDTH 24 0
BBX 24 23 0 0
BITMAP
000800
001400
002200
004100
000000
800801
400801
401401
401402
402402
202202
202202
204204
104104
104104
108104
108088
088088
090088
090050
050050
060050
060030
ENDCHAR
STARTCHAR 0175
ENCODING 373
SWIDTH 800 0
DWIDTH 20 0
BBX 18 18 1 0
BITMAP
00C000
012000
021000
000000
000000
804040
40C040
40C080
412080
412080
212080
221100
221100
121100
140A00
140A00
0C0A00
0C0400
ENDCHAR
STARTCHAR 0176
ENCODING 374
SWIDTH 560 0
DWIDTH 14 0
BBX 12 23 1 0
BITMAP
0200
0500
0980
10C0
0000
8010
4010
4020
2020
2040
1040
1080
0880
0900
0500
0600
0200
0200
0200
0200
0200
0200
0200
ENDCHAR
STARTCHAR 0177
ENCODING 375
SWIDTH 520 0
DWIDTH 13 0
BBX 11 23 1 -5
BITMAP
0E00
1B00
3100
0080
0000
8020
4020
4040
4040
2080
2080
1100
1100
1100
0A00
0A00
0400
0400
0800
0800
1000
3000
4000
ENDCHAR
STARTCHAR 0178
ENCODING 376
SWIDTH 560 0
DWIDTH 14 0
BBX 12 22 1 0
BITMAP
0980
0980
0000
0000
8010
4010
4020
2020
2040
1040
1080
0880
0900
0500
0600
0200
0200
0200
0200
0200
0200
0200
ENDCHAR
STARTCHAR 0179
ENCODING 377
SWIDTH 600 0
DWIDTH 15 0
BBX 12 23 1 0
BITMAP
0080
0080
0100
0200
0000
FFF0
0010
0020
0020
0040
0080
0080
0100
0200
0200
0400
0800
0800
1000
2000
2000
4000
FFF0
ENDCHAR
STARTCHAR 017A
ENCODING 378
SWIDTH 480 0
DWIDTH 12 0
BBX 10 19 1 0
BITMAP
0100
0100
0200
0400
0000
0000
7FC0
0040
0080
0100
0200
0200
0400
0800
1000
2000
2000
4000
FFC0
ENDCHAR
STARTCHAR 017B
ENCODING 379
SWIDTH 600 0
DWIDTH 15 0
BBX 12 22 1 0
BITMAP
0200
0200
0000
0000
FFF0
0010
0020
0020
0040
0080
0080
0100
0200
0200
0400
0800
0800
1000
2000
2000
4000
FFF0
ENDCHAR
STARTCHAR 017C
ENCODING 380
SWIDTH 480 0
DWIDTH 12 0
BBX 10 17 1 1
BITMAP
0400
0000
0000
0000
7FC0
0040
0080
0100
0200
0200
0400
0800
1000
2000
2000
4000
FFC0
ENDCHAR
STARTCHAR 017D
ENCODING 381
SWIDTH 600 0
DWIDTH 15 0
BBX 12 23 1 0
BITMAP
1040
0880
0500
0200
0000
FFF0
0010
0020
0020
0040
0080
0080
0100
0200
0200
0400
0800
0800
1000
2000
2000
4000
FFF0
ENDCHAR
STARTCHAR 017E
ENCODING 382
SWIDTH 480 0
DWIDTH 12 0
BBX 10 18 1 0
BITMAP
3100
1A00
0E00
0000
0000
7FC0
0040
0080
0100
0200
0200
0400
0800
1000
2000
2000
4000
FFC0
ENDCHAR
STARTCHAR 01A0
ENCODING 416
SWIDTH 720 0
DWIDTH 18 0
BBX 15 19 2 0
BITMAP
0008
07F8
1830
2008
4004
8004
8002
8002
8002
8002
8002
8002
8002
8002
8004
4004
6008
3030
0FE0
ENDCHAR
STARTCHAR 01A1
ENCODING 417
SWIDTH 600 0
DWIDTH 15 0
BBX 12 15 2 0
BITMAP
0020
0420
3BC0
4040
C020
8020
8020
8010
8010
8020
8020
8020
4040
60C0
1F00
ENDCHAR
STARTCHAR 01AF
ENCODING 431
SWIDTH 680 0
DWIDTH 17 0
BBX 16 19 2 0
BITMAP
0001
800E
8008
8008
8008
8008
8008
8008
8008
8008
8008
8008
8008
8008
8008
4010
4010
2020
1FC0
ENDCHAR
STARTCHAR 01B0
ENCODING 432
SWIDTH 600 0
DWIDTH 15 0
BBX 14 15 2 0
BITMAP
0004
0004
8038
8020
8020
8020
8020
8020
8020
8020
8020
8020
4060
20A0
1F20
ENDCHAR
STARTCHAR 02C6
ENCODING 710
SWIDTH 360 0
DWIDTH 9 0
BBX 6 3 2 15
BITMAP
70
C8
8C
ENDCHAR
STARTCHAR 02C7
ENCODING 711
SWIDTH 320 0
DWIDTH 8 0
BBX 6 3 1 15
BITMAP
C4
48
30
ENDCHAR
STARTCHAR 02D8
ENCODING 728
SWIDTH 360 0
DWIDTH 9 0
BBX 7 3 1 15
BITMAP
82
C6
38
ENDCHAR
STARTCHAR 02D9
ENCODING 729
SWIDTH 120 0
DWIDTH 3 0
BBX 1 2 1 16
BITMAP
80
80
ENDCHAR
STARTCHAR 02DA
ENCODING 730
SWIDTH 200 0
DWIDTH 5 0
BBX 4 3 1 16
BITMAP
E0
90
E0
ENDCHAR
STARTCHAR 02DB
ENCODING 731
SWIDTH 160 0
DWIDTH 4 0
BBX 3 4 1 -4
BITMAP
40
80
80
E0
ENDCHAR
STARTCHAR 02DC
ENCODING 732
SWIDTH 360 0
DWIDTH 9 0
BBX 7 2 1 16
BITMAP
62
9C
ENDCHAR
STARTCHAR 0300
ENCODING 768
SWIDTH 0 0
DWIDTH 0 0
BBX 3 4 -5 16
BITMAP
80
40
40
20
ENDCHAR
STARTCHAR 0301
ENCODING 769
SWIDTH 0 0
DWIDTH 0 0
BBX 3 4 -4 16
BITMAP
20
20
40
80
ENDCHAR
STARTCHAR 0302
ENCODING 770
SWIDTH 0 0
DWIDTH 0 0
BBX 6 3 -8 15
BITMAP
38
4C
C4
ENDCHAR
STARTCHAR 0303
ENCODING 771
SWIDTH 0 0
DWIDTH 0 0
BBX 6 2 -7 16
BITMAP
64
9C
ENDCHAR
STARTCHAR 0304
ENCODING 772
SWIDTH 0 0
DWIDTH 0 0
BBX 7 1 -8 16
BITMAP
FE
ENDCHAR
STARTCHAR 0306
ENCODING 774
SWIDTH 0 0
DWIDTH 0 0
BBX 8 3 -9 15
BITMAP
81
42
3C
ENDCHAR
STARTCHAR 0307
ENCODING 775
SWIDTH 0 0
DWIDTH 0 0
BBX 2 1 -4 17
BITMAP
C0
ENDCHAR
STARTCHAR 0308
ENCODING 776
SWIDTH 0 0
DWIDTH 0 0
BBX 5 2 -7 16
BITMAP
08
D8
ENDCHAR
STARTCHAR 0309
ENCODING 777
SWIDTH 0 0
DWIDTH 0 0
BBX 4 4 -5 16
BITMAP
60
90
10
20
ENDCHAR
STARTCHAR 030A
ENCODING 778
SWIDTH 0 0
DWIDTH 0 0
BBX 4 3 -5 16
BITMAP
E0
90
E0
ENDCHAR
STARTCHAR 030C
ENCODING 780
SWIDTH 0 0
DWIDTH 0 0
BBX 6 3 -8 15
BITMAP
C4
68
38
ENDCHAR
STARTCHAR 031B
ENCODING 795
SWIDTH 0 0
DWIDTH 0 0
BBX 3 3 -4 12
BITMAP
20
20
C0
ENDCHAR
STARTCHAR 0323
ENCODING 803
SWIDTH 0 0
DWIDTH 0 0
BBX 1 2 -2 -5
BITMAP
80
80
ENDCHAR
STARTCHAR 0327
ENCODING 807
SWIDTH 0 0
DWIDTH 0 0
BBX 4 6 -5 -6
BITMAP
80
80
F0
10
10
F0
ENDCHAR
STARTCHAR 0328
ENCODING 808
SWIDTH 0 0
DWIDTH 0 0
BBX 3 4 -4 -4
BITMAP
40
80
80
E0
ENDCHAR
STARTCHAR 1E80
ENCODING 7808
SWIDTH 960 0
DWIDTH 24 0
BBX 24 23 0 0
BITMAP
002000
002000
001000
000000
000000
800801
400801
401401
401402
402402
202202
202202
204204
104104
104104
108104
108088
088088
090088
090050
050050
060050
060030
ENDCHAR
STARTCHAR 1E81
ENCODING 7809
SWIDTH 800 0
DWIDTH 20 0
BBX 18 19 1 0
BITMAP
020000
010000
010000
008000
000000
000000
804040
40C040
40C080
412080
412080
212080
221100
221100
121100
140A00
140A00
0C0A00
0C0400
ENDCHAR
STARTCHAR 1E82
ENCODING 7810
SWIDTH 960 0
DWIDTH 24 0
BBX 24 23 0 0
BITMAP
000200
000400
000400
000800
000000
800801
400801
401401
401402
402402
202202
202202
204204
104104
104104
108104
108088
088088
090088
090050
050050
060050
060030
ENDCHAR
STARTCHAR 1E83
ENCODING 7811
SWIDTH 800 0
DWIDTH 20 0
BBX 18 19 1 0
BITMAP
001000
002000
002000
004000
000000
000000
804040
40C040
40C080
412080
412080
212080
221100
221100
121100
140A00
140A00
0C0A00
0C0400
ENDCHAR
STARTCHAR 1E84
ENCODING 7812
SWIDTH 960 0
DWIDTH 24 0
BBX 24 22 0 0
BITMAP
002600
002600
000000
000000
800801
400801
401401
401402
402402
202202
202202
204204
104104
104104
108104
108088
088088
090088
090050
050050
060050
060030
ENDCHAR
STARTCHAR 1E85
ENCODING 7813
SWIDTH 800 0
DWIDTH 20 0
BBX 18 17 1 1
BITMAP
033000
000000
000000
000000
804040
40C040
40C080
412080
412080
212080
221100
221100
121100
140A00
140A00
0C0A00
0C0400
ENDCHAR
STARTCHAR 1EA0
ENCODING 7840
SWIDTH 680 0
DWIDTH 17 0
BBX 15 23 1 -5
BITMAP
0100
0100
0280
0280
0440
0440
0440
0820
0820
1010
1010
1FF0
2008
2008
2004
4004
4004
8002
0000
0000
0000
0100
0100
ENDCHAR
STARTCHAR 1EA1
ENCODING 7841
SWIDTH 600 0
DWIDTH 15 0
BBX 12 19 1 -5
BITMAP
0200
1DD0
2030
4030
4010
4010
8010
8010
8010
4010
4010
2030
3050
0F90
0000
0000
0000
0200
0300
ENDCHAR
STARTCHAR 1EA2
ENCODING 7842
SWIDTH 680 0
DWIDTH 17 0
BBX 15 23 1 0
BITMAP
0380
0040
0080
0100
0000
0100
0100
0280
0280
0440
0440
0440
0820
0820
1010
1010
1FF0
2008
2008
2004
4004
4004
8002
ENDCHAR
STARTCHAR 1EA3
ENCODING 7843
SWIDTH 600 0
DWIDTH 15 0
BBX 12 19 1 0
BITMAP
0700
0480
0080
0100
0000
0200
1DD0
2030
4030
4010
4010
8010
8010
8010
4010
4010
2030
3050
0F90
ENDCHAR
STARTCHAR 1EA4
ENCODING 7844
SWIDTH 680 0
DWIDTH 17 0
BBX 15 26 1 0
BITMAP
0008
0008
0010
0120
0280
0440
0820
0000
0100
0100
0280
0280
0440
0440
0440
0820
0820
1010
1010
1FF0
2008
2008
2004
4004
4004
8002
ENDCHAR
STARTCHAR 1EA5
ENCODING 7845
SWIDTH 600 0
DWIDTH 15 0
BBX 13 22 1 0
BITMAP
0018
0010
0020
0020
0700
0480
0840
0000
0200
1DD0
2030
4030
4010
4010
8010
8010
8010
4010
4010
2030
3050
0F90
ENDCHAR
STARTCHAR 1EA6
ENCODING 7846
SWIDTH 680 0
DWIDTH 17 0
BBX 15 26 1 0
BITMAP
0080
0080
0040
0120
0280
0440
0820
0000
0100
0100
0280
0280
0440
0440
0440
0820
0820
1010
1010
1FF0
2008
2008
2004
4004
4004
8002
ENDCHAR
STARTCHAR 1EA7
ENCODING 7847
SWIDTH 600 0
DWIDTH 15 0
BBX 12 22 1 0
BITMAP
0100
0100
0080
0040
0700
0C80
08C0
0000
0200
1DD0
2030
4030
4010
4010
8010
8010
8010
4010
4010
2030
3050
0F90
ENDCHAR
STARTCHAR 1EA8
ENCODING 7848
SWIDTH 680 0
DWIDTH 17 0
BBX 15 26 1 0
BITMAP
0070
0008
0010
0120
0280
0440
0820
0000
0100
0100
0280
0280
0440
0440
0440
0820
0820
1010
1010
1FF0
2008
2008
2004
4004
4004
8002
ENDCHAR
STARTCHAR 1EA9
ENCODING 7849
SWIDTH 600 0
DWIDTH 15 0
BBX 12 22 1 0
BITMAP
00E0
0010
0010
0020
0700
0C80
08C0
0000
0200
1DD0
2030
4030
4010
4010
8010
8010
8010
4010
4010
2030
3050
0F90
ENDCHAR
STARTCHAR 1EAA
ENCODING 7850
SWIDTH 680 0
DWIDTH 17 0
BBX 15 26 1 0
BITMAP
0220
0520
0800
0100
0280
0440
0820
0000
0100
0100
0280
0280
0440
0440
0440
0820
0820
1010
1010
1FF0
2008
2008
2004
4004
4004
8002
ENDCHAR
STARTCHAR 1EAB
ENCODING 7851
SWIDTH 600 0
DWIDTH 15 0
BBX 12 21 1 0
BITMAP
0E40
0180
0000
0700
0C80
08C0
0000
0200
1DD0
2030
4030
4010
4010
8010
8010
8010
4010
4010
2030
3050
0F90
ENDCHAR
STARTCHAR 1EAC
ENCODING 7852
SWIDTH 680 0
DWIDTH 17 0
BBX 15 28 1 -5
BITMAP
0100
0280
0440
0820
0000
0100
0100
0280
0280
0440
0440
0440
0820
0820
1010
1010
1FF0
2008
2008
2004
4004
4004
8002
0000
0000
0000
0100
0100
ENDCHAR
STARTCHAR 1EAD
ENCODING 7853
SWIDTH 600 0
DWIDTH 15 0
BBX 12 23 1 -5
BITMAP
0700
0C80
08C0
0000
0200
1DD0
2030
4030
4010
4010
8010
8010
8010
4010
4010
2030
3050
0F90
0000
0000
0000
0200
0300
ENDCHAR
STARTCHAR 1EAE
ENCODING 7854
SWIDTH 680 0
DWIDTH 17 0
BBX 15 26 1 0
BITMAP
0040
0040
0080
0100
0820
06C0
0100
0000
0100
0100
0280
0280
0440
0440
0440
0820
0820
1010
1010
1FF0
2008
2008
2004
4004
4004
8002
ENDCHAR
STARTCHAR 1EAF
ENCODING 7855
SWIDTH 600 0
DWIDTH 15 0
BBX 12 22 1 0
BITMAP
0040
0080
0100
0100
1000
08C0
0700
0000
0200
1DD0
2030
4030
4010
4010
8010
8010
8010
4010
4010
2030
3050
0F90
ENDCHAR
STARTCHAR 1EB0
ENCODING 7856
SWIDTH 680 0
DWIDTH 17 0
BBX 15 26 1 0
BITMAP
0400
0400
0200
0100
0820
06C0
0100
0000
0100
0100
0280
0280
0440
0440
0440
0820
0820
1010
1010
1FF0
2008
2008
2004
4004
4004
8002
ENDCHAR
STARTCHAR 1EB1
ENCODING 7857
SWIDTH 600 0
DWIDTH 15 0
BBX 12 22 1 0
BITMAP
0800
0800
0400
0400
1000
08C0
0700
0000
0200
1DD0
2030
4030
4010
4010
8010
8010
8010
4010
4010
2030
3050
0F90
ENDCHAR
STARTCHAR 1EB2
ENCODING 7858
SWIDTH 680 0
DWIDTH 17 0
BBX 15 26 1 0
BITMAP
0380
0040
0080
0100
0820
06C0
0100
0000
0100
0100
0280
0280
0440
0440
0440
0820
0820
1010
1010
1FF0
2008
2008
2004
4004
4004
8002
ENDCHAR
STARTCHAR 1EB3
ENCODING 7859
SWIDTH 600 0
DWIDTH 15 0
BBX 12 22 1 0
BITMAP
0300
0480
0080
0100
1000
08C0
0700
0000
0200
1DD0
2030
4030
4010
4010
8010
8010
8010
4010
4010
2030
3050
0F90
ENDCHAR
STARTCHAR 1EB4
ENCODING 7860
SWIDTH 680 0
DWIDTH 17 0
BBX 15 25 1 0
BITMAP
0720
08C0
0000
0820
06C0
0100
0000
0100
0100
0280
0280
0440
0440
0440
0820
0820
1010
1010
1FF0
2008
2008
2004
4004
4004
8002
ENDCHAR
STARTCHAR 1EB5
ENCODING 7861
SWIDTH 600 0
DWIDTH 15 0
BBX 12 21 1 0
BITMAP
0C40
1280
0100
1000
08C0
0700
0000
0200
1DD0
2030
4030
4010
4010
8010
8010
8010
4010
4010
2030
3050
0F90
ENDCHAR
STARTCHAR 1EB6
ENCODING 7862
SWIDTH 680 0
DWIDTH 17 0
BBX 15 27 1 -5
BITMAP
0820
06C0
0100
0000
0100
0100
0280
0280
0440
0440
0440
0820
0820
1010
1010
1FF0
2008
2008
2004
4004
4004
8002
0000
0000
0000
0100
0100
ENDCHAR
STARTCHAR 1EB7
ENCODING 7863
SWIDTH 600 0
DWIDTH 15 0
BBX 12 23 1 -5
BITMAP
1040
08C0
0700
0000
0200
1DD0
2030
4030
4010
4010
8010
8010
8010
4010
4010
2030
3050
0F90
0000
0000
0000
0200
0300
ENDCHAR
STARTCHAR 1EB8
ENCODING 7864
SWIDTH 560 0
DWIDTH 14 0
BBX 10 23 2 -5
BITMAP
FFC0
8000
8000
8000
8000
8000
8000
8000
8000
FF80
8000
8000
8000
8000
8000
8000
8000
FFC0
0000
0000
0000
0400
0C00
ENDCHAR
STARTCHAR 1EB9
ENCODING 7865
SWIDTH 560 0
DWIDTH 14 0
BBX 11 19 2 -5
BITMAP
0400
3B80
4040
C040
8020
8020
8020
FFE0
8000
8000
8020
4040
60C0
1F00
0000
0000
0000
0400
0400
ENDCHAR
STARTCHAR 1EBA
ENCODING 7866
SWIDTH 560 0
DWIDTH 14 0
BBX 10 23 2 0
BITMAP
0E00
0200
0200
0400
0000
FFC0
8000
8000
8000
8000
8000
8000
8000
8000
FF80
8000
8000
8000
8000
8000
8000
8000
FFC0
ENDCHAR
STARTCHAR 1EBB
ENCODING 7867
SWIDTH 560 0
DWIDTH 14 0
BBX 11 19 2 0
BITMAP
0E00
0100
0100
0200
0000
0400
3B80
4040
C040
8020
8020
8020
FFE0
8000
8000
8020
4040
60C0
1F00
ENDCHAR
STARTCHAR 1EBC
ENCODING 7868
SWIDTH 560 0
DWIDTH 14 0
BBX 10 22 2 0
BITMAP
1900
2700
0000
0000
FFC0
8000
8000
8000
8000
8000
8000
8000
8000
FF80
8000
8000
8000
8000
8000
8000
8000
FFC0
ENDCHAR
STARTCHAR 1EBD
ENCODING 7869
SWIDTH 560 0
DWIDTH 14 0
BBX 11 18 2 0
BITMAP
1880
2500
0200
0000
0400
3B80
4040
C040
8020
8020
8020
FFE0
8000
8000
8020
4040
60C0
1F00
ENDCHAR
STARTCHAR 1EBE
ENCODING 7870
SWIDTH 560 0
DWIDTH 14 0
BBX 11 26 2 0
BITMAP
0020
0040
0040
0480
0A00
1100
2080
0000
FFC0
8000
8000
8000
8000
8000
8000
8000
8000
FF80
8000
8000
8000
8000
8000
8000
8000
FFC0
ENDCHAR
STARTCHAR 1EBF
ENCODING 7871
SWIDTH 560 0
DWIDTH 14 0
BBX 12 22 2 0
BITMAP
0030
0020
0040
0080
0E00
1900
1180
2000
0400
3B80
4040
C040
8020
8020
8020
FFE0
8000
8000
8020
4040
60C0
1F00
ENDCHAR
STARTCHAR 1EC0
ENCODING 7872
SWIDTH 560 0
DWIDTH 14 0
BBX 10 26 2 0
BITMAP
0200
0200
0100
0400
0A00
1100
2080
0000
FFC0
8000
8000
8000
8000
8000
8000
8000
8000
FF80
8000
8000
8000
8000
8000
8000
8000
FFC0
ENDCHAR
STARTCHAR 1EC1
ENCODING 7873
SWIDTH 560 0
DWIDTH 14 0
BBX 11 22 2 0
BITMAP
0200
0200
0100
0100
0E00
1900
1180
2000
0400
3B80
4040
C040
8020
8020
8020
FFE0
8000
8000
8020
4040
60C0
1F00
ENDCHAR
STARTCHAR 1EC2
ENCODING 7874
SWIDTH 560 0
DWIDTH 14 0
BBX 10 26 2 0
BITMAP
01C0
0040
0040
0480
0A00
1100
2080
0000
FFC0
8000
8000
8000
8000
8000
8000
8000
8000
FF80
8000
8000
8000
8000
8000
8000
8000
FFC0
ENDCHAR
STARTCHAR 1EC3
ENCODING 7875
SWIDTH 560 0
DWIDTH 14 0
BBX 11 22 2 0
BITMAP
01C0
0020
0020
0040
0E00
1900
1180
2000
0400
3B80
4040
C040
8020
8020
8020
FFE0
8000
8000
8020
4040
60C0
1F00
ENDCHAR
STARTCHAR 1EC4
ENCODING 7876
SWIDTH 560 0
DWIDTH 14 0
BBX 10 26 2 0
BITMAP
1880
2500
2200
0400
0A00
1100
2080
0000
FFC0
8000
8000
8000
8000
8000
8000
8000
8000
FF80
8000
8000
8000
8000
8000
8000
8000
FFC0
ENDCHAR
STARTCHAR 1EC5
ENCODING 7877
SWIDTH 560 0
DWIDTH 14 0
BBX 11 21 2 0
BITMAP
1C80
0300
0000
0E00
1900
1180
2000
0400
3B80
4040
C040
8020
8020
8020
FFE0
8000
8000
8020
4040
60C0
1F00
ENDCHAR
STARTCHAR 1EC6
ENCODING 7878
SWIDTH 560 0
DWIDTH 14 0
BBX 10 28 2 -5
BITMAP
0400
0A00
1100
2080
0000
FFC0
8000
8000
8000
8000
8000
8000
8000
8000
FF80
8000
8000
8000
8000
8000
8000
8000
FFC0
0000
0000
0000
0400
0C00
ENDCHAR
STARTCHAR 1EC7
ENCODING 7879
SWIDTH 560 0
DWIDTH 14 0
BBX 11 23 2 -5
BITMAP
0E00
1900
1180
2000
0400
3B80
4040
C040
8020
8020
8020
FFE0
8000
8000
8020
4040
60C0
1F00
0000
0000
0000
0400
0400
ENDCHAR
STARTCHAR 1EC8
ENCODING 7880
SWIDTH 200 0
DWIDTH 5 0
BBX 4 23 1 0
BITMAP
F0
10
10
20
00
40
40
40
40
40
40
40
40
40
40
40
40
40
40
40
40
40
40
ENDCHAR
STARTCHAR 1EC9
ENCODING 7881
SWIDTH 200 0
DWIDTH 5 0
BBX 4 19 1 0
BITMAP
E0
90
10
20
00
00
40
40
40
40
40
40
40
40
40
40
40
40
40
ENDCHAR
STARTCHAR 1ECA
ENCODING 7882
SWIDTH 200 0
DWIDTH 5 0
BBX 2 23 2 -5
BITMAP
80
80
80
80
80
80
80
80
80
80
80
80
80
80
80
80
80
80
00
00
00
80
C0
ENDCHAR
STARTCHAR 1ECB
ENCODING 7883
SWIDTH 200 0
DWIDTH 5 0
BBX 2 23 2 -5
BITMAP
80
C0
00
00
00
80
80
80
80
80
80
80
80
80
80
80
80
80
00
00
00
80
C0
ENDCHAR
STARTCHAR 1ECC
ENCODING 7884
SWIDTH 720 0
DWIDTH 18 0
BBX 15 23 2 -5
BITMAP
07C0
1830
2008
4004
8004
8002
8002
8002
8002
8002
8002
8002
8002
8004
4004
6008
3030
0FE0
0000
0000
0000
0100
0300
ENDCHAR
STARTCHAR 1ECD
ENCODING 7885
SWIDTH 600 0
DWIDTH 15 0
BBX 12 19 2 -5
BITMAP
0400
3B80
4040
C020
8020
8020
8010
8010
8020
8020
8020
4040
60C0
1F00
0000
0000
0000
0400
0400
ENDCHAR
STARTCHAR 1ECE
ENCODING 7886
SWIDTH 720 0
DWIDTH 18 0
BBX 15 23 2 0
BITMAP
0380
0080
0080
0100
0000
07C0
1830
2008
4004
8004
8002
8002
8002
8002
8002
8002
8002
8002
8004
4004
6008
3030
0FE0
ENDCHAR
STARTCHAR 1ECF
ENCODING 7887
SWIDTH 600 0
DWIDTH 15 0
BBX 12 19 2 0
BITMAP
0E00
0100
0100
0200
0000
0400
3B80
4040
C020
8020
8020
8010
8010
8020
8020
8020
4040
60C0
1F00
ENDCHAR
STARTCHAR 1ED0
ENCODING 7888
SWIDTH 720 0
DWIDTH 18 0
BBX 15 26 2 0
BITMAP
0008
0010
0010
0120
0280
0440
0820
0000
07C0
1830
2008
4004
8004
8002
8002
8002
8002
8002
8002
8002
8002
8004
4004
6008
3030
0FE0
ENDCHAR
STARTCHAR 1ED1
ENCODING 7889
SWIDTH 600 0
DWIDTH 15 0
BBX 12 22 2 0
BITMAP
0030
0020
0040
0080
0E00
1900
1180
2000
0400
3B80
4040
C020
8020
8020
8010
8010
8020
8020
8020
4040
60C0
1F00
ENDCHAR
STARTCHAR 1ED2
ENCODING 7890
SWIDTH 720 0
DWIDTH 18 0
BBX 15 26 2 0
BITMAP
0080
0080
0040
0100
0280
0440
0820
0000
07C0
1830
2008
4004
8004
8002
8002
8002
8002
8002
8002
8002
8002
8004
4004
6008
3030
0FE0
ENDCHAR
STARTCHAR 1ED3
ENCODING 7891
SWIDTH 600 0
DWIDTH 15 0
BBX 12 22 2 0
BITMAP
0200
0200
0100
0100
0E00
1900
1180
2000
0400
3B80
4040
C020
8020
8020
8010
8010
8020
8020
8020
4040
60C0
1F00
ENDCHAR
STARTCHAR 1ED4
ENCODING 7892
SWIDTH 720 0
DWIDTH 18 0
BBX 15 26 2 0
BITMAP
0070
0010
0010
0120
0280
0440
0820
0000
07C0
1830
2008
4004
8004
8002
8002
8002
8002
8002
8002
8002
8002
8004
4004
6008
3030
0FE0
ENDCHAR
STARTCHAR 1ED5
ENCODING 7893
SWIDTH 600 0
DWIDTH 15 0
BBX 12 22 2 0
BITMAP
01C0
0020
0020
0040
0E00
1900
1180
2000
0400
3B80
4040
C020
8020
8020
8010
8010
8020
8020
8020
4040
60C0
1F00
ENDCHAR
STARTCHAR 1ED6
ENCODING 7894
SWIDTH 720 0
DWIDTH 18 0
BBX 15 26 2 0
BITMAP
0620
0940
0880
0100
0280
0440
0820
0000
07C0
1830
2008
4004
8004
8002
8002
8002
8002
8002
8002
8002
8002
8004
4004
6008
3030
0FE0
ENDCHAR
STARTCHAR 1ED7
ENCODING 7895
SWIDTH 600 0
DWIDTH 15 0
BBX 12 21 2 0
BITMAP
1C80
0300
0000
0E00
1900
1180
2000
0400
3B80
4040
C020
8020
8020
8010
8010
8020
8020
8020
4040
60C0
1F00
ENDCHAR
STARTCHAR 1ED8
ENCODING 7896
SWIDTH 720 0
DWIDTH 18 0
BBX 15 28 2 -5
BITMAP
0100
0280
0440
0820
0000
07C0
1830
2008
4004
8004
8002
8002
8002
8002
8002
8002
8002
8002
8004
4004
6008
3030
0FE0
0000
0000
0000
0100
0300
ENDCHAR
STARTCHAR 1ED9
ENCODING 7897
SWIDTH 600 0
DWIDTH 15 0
BBX 12 23 2 -5
BITMAP
0E00
1900
1180
2000
0400
3B80
4040
C020
8020
8020
8010
8010
8020
8020
8020
4040
60C0
1F00
0000
0000
0000
0400
0400
ENDCHAR
STARTCHAR 1EDA
ENCODING 7898
SWIDTH 720 0
DWIDTH 18 0
BBX 15 23 2 0
BITMAP
0040
0080
0080
0100
0008
07F8
1830
2008
4004
8004
8002
8002
8002
8002
8002
8002
8002
8002
8004
4004
6008
3030
0FE0
ENDCHAR
STARTCHAR 1EDB
ENCODING 7899
SWIDTH 600 0
DWIDTH 15 0
BBX 12 19 2 0
BITMAP
0180
0100
0200
0200
0020
0420
3BC0
4040
C020
8020
8020
8010
8010
8020
8020
8020
4040
60C0
1F00
ENDCHAR
STARTCHAR 1EDC
ENCODING 7900
SWIDTH 720 0
DWIDTH 18 0
BBX 15 23 2 0
BITMAP
0400
0400
0200
0000
0008
07F8
1830
2008
4004
8004
8002
8002
8002
8002
8002
8002
8002
8002
8004
4004
6008
3030
0FE0
ENDCHAR
STARTCHAR 1EDD
ENCODING 7901
SWIDTH 600 0
DWIDTH 15 0
BBX 12 19 2 0
BITMAP
1000
1000
0800
0800
0020
0420
3BC0
4040
C020
8020
8020
8010
8010
8020
8020
8020
4040
60C0
1F00
ENDCHAR
STARTCHAR 1EDE
ENCODING 7902
SWIDTH 720 0
DWIDTH 18 0
BBX 15 23 2 0
BITMAP
0380
0080
0080
0100
0008
07F8
1830
2008
4004
8004
8002
8002
8002
8002
8002
8002
8002
8002
8004
4004
6008
3030
0FE0
ENDCHAR
STARTCHAR 1EDF
ENCODING 7903
SWIDTH 600 0
DWIDTH 15 0
BBX 12 19 2 0
BITMAP
0E00
0100
0100
0200
0020
0420
3BC0
4040
C020
8020
8020
8010
8010
8020
8020
8020
4040
60C0
1F00
ENDCHAR
STARTCHAR 1EE0
ENCODING 7904
SWIDTH 720 0
DWIDTH 18 0
BBX 15 22 2 0
BITMAP
0640
09C0
0000
0008
07F8
1830
2008
4004
8004
8002
8002
8002
8002
8002
8002
8002
8002
8004
4004
6008
3030
0FE0
ENDCHAR
STARTCHAR 1EE1
ENCODING 7905
SWIDTH 600 0
DWIDTH 15 0
BBX 12 18 2 0
BITMAP
1880
2500
0200
0020
0420
3BC0
4040
C020
8020
8020
8010
8010
8020
8020
8020
4040
60C0
1F00
ENDCHAR
STARTCHAR 1EE2
ENCODING 7906
SWIDTH 720 0
DWIDTH 18 0
BBX 15 24 2 -5
BITMAP
0008
07F8
1830
2008
4004
8004
8002
8002
8002
8002
8002
8002
8002
8002
8004
4004
6008
3030
0FE0
0000
0000
0000
0100
0300
ENDCHAR
STARTCHAR 1EE3
ENCODING 7907
SWIDTH 600 0
DWIDTH 15 0
BBX 12 20 2 -5
BITMAP
0020
0420
3BC0
4040
C020
8020
8020
8010
8010
8020
8020
8020
4040
60C0
1F00
0000
0000
0000
0400
0400
ENDCHAR
STARTCHAR 1EE4
ENCODING 7908
SWIDTH 680 0
DWIDTH 17 0
BBX 13 23 2 -5
BITMAP
8008
8008
8008
8008
8008
8008
8008
8008
8008
8008
8008
8008
8008
8008
4010
4010
2020
1FC0
0000
0000
0000
0200
0200
ENDCHAR
STARTCHAR 1EE5
ENCODING 7909
SWIDTH 600 0
DWIDTH 15 0
BBX 11 18 2 -5
BITMAP
8020
8020
8020
8020
8020
8020
8020
8020
8020
8020
4060
20A0
1F20
0000
0000
0000
0400
0C00
ENDCHAR
STARTCHAR 1EE6
ENCODING 7910
SWIDTH 680 0
DWIDTH 17 0
BBX 13 23 2 0
BITMAP
0700
0080
0100
0200
0000
8008
8008
8008
8008
8008
8008
8008
8008
8008
8008
8008
8008
8008
8008
4010
4010
2020
1FC0
ENDCHAR
STARTCHAR 1EE7
ENCODING 7911
SWIDTH 600 0
DWIDTH 15 0
BBX 11 19 2 0
BITMAP
0E00
1200
0200
0400
0000
0000
8020
8020
8020
8020
8020
8020
8020
8020
8020
8020
4060
20A0
1F20
ENDCHAR
STARTCHAR 1EE8
ENCODING 7912
SWIDTH 680 0
DWIDTH 17 0
BBX 16 23 2 0
BITMAP
0080
0080
0100
0200
0001
800E
8008
8008
8008
8008
8008
8008
8008
8008
8008
8008
8008
8008
8008
4010
4010
2020
1FC0
ENDCHAR
STARTCHAR 1EE9
ENCODING 7913
SWIDTH 600 0
DWIDTH 15 0
BBX 14 19 2 0
BITMAP
0100
0100
0200
0400
0004
0004
8038
8020
8020
8020
8020
8020
8020
8020
8020
8020
4060
20A0
1F20
ENDCHAR
STARTCHAR 1EEA
ENCODING 7914
SWIDTH 680 0
DWIDTH 17 0
BBX 16 23 2 0
BITMAP
0800
0800
0400
0200
0001
800E
8008
8008
8008
8008
8008
8008
8008
8008
8008
8008
8008
8008
8008
4010
4010
2020
1FC0
ENDCHAR
STARTCHAR 1EEB
ENCODING 7915
SWIDTH 600 0
DWIDTH 15 0
BBX 14 19 2 0
BITMAP
2000
1000
0800
0800
0004
0004
8038
8020
8020
8020
8020
8020
8020
8020
8020
8020
4060
20A0
1F20
ENDCHAR
STARTCHAR 1EEC
ENCODING 7916
SWIDTH 680 0
DWIDTH 17 0
BBX 16 23 2 0
BITMAP
0700
0080
0100
0200
0001
800E
8008
8008
8008
8008
8008
8008
8008
8008
8008
8008
8008
8008
8008
4010
4010
2020
1FC0
ENDCHAR
STARTCHAR 1EED
ENCODING 7917
SWIDTH 600 0
DWIDTH 15 0
BBX 14 19 2 0
BITMAP
0E00
1200
0200
0400
0004
0004
8038
8020
8020
8020
8020
8020
8020
8020
8020
8020
4060
20A0
1F20
ENDCHAR
STARTCHAR 1EEE
ENCODING 7918
SWIDTH 680 0
DWIDTH 17 0
BBX 16 22 2 0
BITMAP
0E40
1180
0000
0001
800E
8008
8008
8008
8008
8008
8008
8008
8008
8008
8008
8008
8008
8008
4010
4010
2020
1FC0
ENDCHAR
STARTCHAR 1EEF
ENCODING 7919
SWIDTH 600 0
DWIDTH 15 0
BBX 14 18 2 0
BITMAP
1880
2700
0000
0004
0004
8038
8020
8020
8020
8020
8020
8020
8020
8020
8020
4060
20A0
1F20
ENDCHAR
STARTCHAR 1EF0
ENCODING 7920
SWIDTH 680 0
DWIDTH 17 0
BBX 16 24 2 -5
BITMAP
0001
800E
8008
8008
8008
8008
8008
8008
8008
8008
8008
8008
8008
8008
8008
4010
4010
2020
1FC0
0000
0000
0000
0200
0200
ENDCHAR
STARTCHAR 1EF1
ENCODING 7921
SWIDTH 600 0
DWIDTH 15 0
BBX 14 20 2 -5
BITMAP
0004
0004
8038
8020
8020
8020
8020
8020
8020
8020
8020
8020
4060
20A0
1F20
0000
0000
0000
0400
0C00
ENDCHAR
STARTCHAR 1EF2
ENCODING 7922
SWIDTH 560 0
DWIDTH 14 0
BBX 12 23 1 0
BITMAP
1800
0800
0400
0000
0000
8010
4010
4020
2020
2040
1040
1080
0880
0900
0500
0600
0200
0200
0200
0200
0200
0200
0200
ENDCHAR
STARTCHAR 1EF3
ENCODING 7923
SWIDTH 520 0
DWIDTH 13 0
BBX 11 24 1 -5
BITMAP
3000
1000
0800
0800
0000
0000
8020
4020
4040
4040
2080
2080
1100
1100
1100
0A00
0A00
0400
0400
0800
0800
1000
3000
4000
ENDCHAR
STARTCHAR 1EF4
ENCODING 7924
SWIDTH 560 0
DWIDTH 14 0
BBX 12 23 1 -5
BITMAP
8010
4010
4020
2020
2040
1040
1080
0880
0900
0500
0600
0200
0200
0200
0200
0200
0200
0200
0000
0000
0000
0600
0600
ENDCHAR
STARTCHAR 1EF5
ENCODING 7925
SWIDTH 520 0
DWIDTH 13 0
BBX 11 18 1 -5
BITMAP
8020
4020
4040
4040
2080
2080
1100
1100
1100
0A00
0A00
0400
0400
0800
0800
1000
3080
4080
ENDCHAR
STARTCHAR 1EF6
ENCODING 7926
SWIDTH 560 0
DWIDTH 14 0
BBX 12 23 1 0
BITMAP
0700
0100
0100
0200
0000
8010
4010
4020
2020
2040
1040
1080
0880
0900
0500
0600
0200
0200
0200
0200
0200
0200
0200
ENDCHAR
STARTCHAR 1EF7
ENCODING 7927
SWIDTH 520 0
DWIDTH 13 0
BBX 11 24 1 -5
BITMAP
0E00
1100
0100
0200
0000
0000
8020
4020
4040
4040
2080
2080
1100
1100
1100
0A00
0A00
0400
0400
0800
0800
1000
3000
4000
ENDCHAR
STARTCHAR 1EF8
ENCODING 7928
SWIDTH 560 0
DWIDTH 14 0
BBX 12 22 1 0
BITMAP
1C80
1380
0000
0000
8010
4010
4020
2020
2040
1040
1080
0880
0900
0500
0600
0200
0200
0200
0200
0200
0200
0200
ENDCHAR
STARTCHAR 1EF9
ENCODING 7929
SWIDTH 520 0
DWIDTH 13 0
BBX 11 23 1 -5
BITMAP
1880
2500
0200
0000
0000
8020
4020
4040
4040
2080
2080
1100
1100
1100
0A00
0A00
0400
0400
0800
0800
1000
3000
4000
ENDCHAR
STARTCHAR 2013
ENCODING 8211
SWIDTH 640 0
DWIDTH 16 0
BBX 10 1 3 7
BITMAP
FFC0
ENDCHAR
STARTCHAR 2014
ENCODING 8212
SWIDTH 760 0
DWIDTH 19 0
BBX 13 1 3 7
BITMAP
FFF8
ENDCHAR
STARTCHAR 2018
ENCODING 8216
SWIDTH 280 0
DWIDTH 7 0
BBX 2 5 3 13
BITMAP
40
80
80
C0
C0
ENDCHAR
STARTCHAR 2019
ENCODING 8217
SWIDTH 240 0
DWIDTH 6 0
BBX 2 5 3 11
BITMAP
C0
C0
40
80
80
ENDCHAR
STARTCHAR 201A
ENCODING 8218
SWIDTH 280 0
DWIDTH 7 0
BBX 2 5 2 -3
BITMAP
C0
C0
40
40
40
ENDCHAR
STARTCHAR 201C
ENCODING 8220
SWIDTH 480 0
DWIDTH 12 0
BBX 7 5 3 13
BITMAP
42
84
84
C6
C6
ENDCHAR
STARTCHAR 201D
ENCODING 8221
SWIDTH 480 0
DWIDTH 12 0
BBX 8 5 2 11
BITMAP
C2
E7
21
42
42
ENDCHAR
STARTCHAR 201E
ENCODING 8222
SWIDTH 480 0
DWIDTH 12 0
BBX 7 5 2 -3
BITMAP
C6
C6
42
42
42
ENDCHAR
STARTCHAR 2020
ENCODING 8224
SWIDTH 560 0
DWIDTH 14 0
BBX 10 24 2 -6
BITMAP
0400
0400
0400
0400
0400
FFC0
0400
0400
0400
0400
0400
0400
0400
0400
0400
0400
0400
0400
0400
0400
0400
0400
0400
0400
ENDCHAR
STARTCHAR 2021
ENCODING 8225
SWIDTH 560 0
DWIDTH 14 0
BBX 10 24 2 -6
BITMAP
0400
0400
0400
0400
0400
FFC0
0400
0400
0400
0400
0400
0400
0400
0400
0400
0400
0400
0400
FFC0
0400
0400
0400
0400
0400
ENDCHAR
STARTCHAR 2022
ENCODING 8226
SWIDTH 280 0
DWIDTH 7 0
BBX 4 3 2 8
BITMAP
E0
F0
E0
ENDCHAR
STARTCHAR 2026
ENCODING 8230
SWIDTH 720 0
DWIDTH 18 0
BBX 14 2 2 0
BITMAP
8208
820C
ENDCHAR
STARTCHAR 2030
ENCODING 8240
SWIDTH 1200 0
DWIDTH 30 0
BBX 29 18 1 0
BITMAP
30020000
CC040000
84040000
84080000
84080000
84100000
48100000
30200000
00200000
00400000
00400000
0081C0F0
00822108
01041108
02041208
02041108
04042108
0403E0F0
ENDCHAR
STARTCHAR 2039
ENCODING 8249
SWIDTH 320 0
DWIDTH 8 0
BBX 6 10 1 3
BITMAP
0C
18
30
60
C0
40
20
10
08
04
ENDCHAR
STARTCHAR 203A
ENCODING 8250
SWIDTH 320 0
DWIDTH 8 0
BBX 5 10 2 3
BITMAP
80
40
20
10
08
18
30
20
40
80
ENDCHAR
STARTCHAR 2044
ENCODING 8260
SWIDTH 440 0
DWIDTH 11 0
BBX 11 18 0 0
BITMAP
0020
0020
0040
0080
0080
0100
0100
0200
0400
0400
0800
0800
1000
2000
2000
4000
4000
8000
ENDCHAR
STARTCHAR 2070
ENCODING 8304
SWIDTH 320 0
DWIDTH 8 0
BBX 6 10 1 9
BITMAP
78
84
84
84
84
84
84
84
48
30
ENDCHAR
STARTCHAR 2074
ENCODING 8308
SWIDTH 320 0
DWIDTH 8 0
BBX 6 9 1 10
BITMAP
08
18
28
28
48
88
FC
08
08
ENDCHAR
STARTCHAR 2075
ENCODING 8309
SWIDTH 280 0
DWIDTH 7 0
BBX 6 9 1 10
BITMAP
F8
80
80
F0
88
04
04
84
F8
ENDCHAR
STARTCHAR 2076
ENCODING 8310
SWIDTH 280 0
DWIDTH 7 0
BBX 6 9 1 10
BITMAP
20
40
80
F8
84
84
84
88
60
ENDCHAR
STARTCHAR 2077
ENCODING 8311
SWIDTH 280 0
DWIDTH 7 0
BBX 5 9 1 10
BITMAP
F8
08
08
10
10
20
20
20
40
ENDCHAR
STARTCHAR 2078
ENCODING 8312
SWIDTH 320 0
DWIDTH 8 0
BBX 6 10 1 9
BITMAP
78
84
84
84
78
84
84
84
84
78
ENDCHAR
STARTCHAR 2079
ENCODING 8313
SWIDTH 280 0
DWIDTH 7 0
BBX 6 10 1 9
BITMAP
70
88
84
84
84
78
08
10
10
20
ENDCHAR
STARTCHAR 2080
ENCODING 8320
SWIDTH 320 0
DWIDTH 8 0
BBX 6 9 1 -6
BITMAP
78
84
84
84
84
84
84
84
78
ENDCHAR
STARTCHAR 2081
ENCODING 8321
SWIDTH 200 0
DWIDTH 5 0
BBX 4 9 1 -6
BITMAP
40
C0
40
40
40
40
40
40
F0
ENDCHAR
STARTCHAR 2082
ENCODING 8322
SWIDTH 280 0
DWIDTH 7 0
BBX 6 9 1 -6
BITMAP
78
88
84
08
08
10
20
40
FC
ENDCHAR
STARTCHAR 2083
ENCODING 8323
SWIDTH 280 0
DWIDTH 7 0
BBX 6 9 1 -6
BITMAP
78
84
04
08
38
04
04
84
78
ENDCHAR
STARTCHAR 2084
ENCODING 8324
SWIDTH 320 0
DWIDTH 8 0
BBX 6 9 1 -6
BITMAP
08
18
28
48
48
88
FC
08
08
ENDCHAR
STARTCHAR 2085
ENCODING 8325
SWIDTH 280 0
DWIDTH 7 0
BBX 6 9 1 -6
BITMAP
F8
80
80
F8
84
04
04
84
78
ENDCHAR
STARTCHAR 2086
ENCODING 8326
SWIDTH 280 0
DWIDTH 7 0
BBX 6 9 1 -6
BITMAP
20
20
40
B0
C8
84
84
84
78
ENDCHAR
STARTCHAR 2087
ENCODING 8327
SWIDTH 280 0
DWIDTH 7 0
BBX 5 9 1 -6
BITMAP
F8
08
08
10
10
20
20
40
40
ENDCHAR
STARTCHAR 2088
ENCODING 8328
SWIDTH 320 0
DWIDTH 8 0
BBX 6 9 1 -6
BITMAP
78
84
84
48
78
84
84
84
78
ENDCHAR
STARTCHAR 2089
ENCODING 8329
SWIDTH 280 0
DWIDTH 7 0
BBX 6 9 1 -6
BITMAP
78
84
84
84
8C
78
08
10
20
ENDCHAR
STARTCHAR 20AB
ENCODING 8363
SWIDTH 560 0
DWIDTH 14 0
BBX 13 20 1 0
BITMAP
0010
0010
03F8
0010
0F10
30D0
4050
C030
8010
8010
8010
8010
8030
4030
2050
1F90
0000
0000
0000
7FF0
ENDCHAR
STARTCHAR 20AC
ENCODING 8364
SWIDTH 720 0
DWIDTH 18 0
BBX 17 17 0 0
BITMAP
01FC00
060600
040300
080100
080080
100000
FFC000
100000
100000
100000
FFC000
100000
080100
080100
040200
020600
01F800
ENDCHAR
STARTCHAR 2122
ENCODING 8482
SWIDTH 360 0
DWIDTH 9 0
BBX 8 5 1 13
BITMAP
E9
4B
5B
55
41
ENDCHAR
STARTCHAR 215B
ENCODING 8539
SWIDTH 840 0
DWIDTH 21 0
BBX 20 18 1 0
BITMAP
200200
600200
A00400
200400
200800
201000
201000
202000
F02000
0041C0
008220
008220
010220
0101E0
020210
040410
040210
0801E0
ENDCHAR
STARTCHAR 215C
ENCODING 8540
SWIDTH 800 0
DWIDTH 20 0
BBX 18 18 1 0
BITMAP
100200
680400
840400
040800
181000
081000
042000
842000
484000
008380
008440
010840
010440
020380
040C40
040840
080840
080780
ENDCHAR
STARTCHAR 215D
ENCODING 8541
SWIDTH 880 0
DWIDTH 22 0
BBX 20 18 1 0
BITMAP
FC0200
800200
800400
B00800
CC0800
041000
041000
842000
784000
0041C0
008220
008210
010220
0201E0
020210
040210
040210
0801E0
ENDCHAR
STARTCHAR 215E
ENCODING 8542
SWIDTH 880 0
DWIDTH 22 0
BBX 19 18 2 0
BITMAP
000400
F00400
100800
100800
201000
202000
402000
404000
804000
0083C0
010420
010420
020220
0203C0
040420
080420
080420
1003C0
ENDCHAR
STARTCHAR 2212
ENCODING 8722
SWIDTH 600 0
DWIDTH 15 0
BBX 9 1 3 7
BITMAP
FF80
ENDCHAR
STARTCHAR 2215
ENCODING 8725
SWIDTH 480 0
DWIDTH 12 0
BBX 9 17 2 1
BITMAP
0080
0100
0100
0100
0200
0200
0400
0400
0800
0800
1000
1000
2000
2000
4000
4000
8000
ENDCHAR
STARTCHAR 2248
ENCODING 8776
SWIDTH 520 0
DWIDTH 13 0
BBX 8 7 3 5
BITMAP
61
9B
04
00
00
E1
9E
ENDCHAR
STARTCHAR 2260
ENCODING 8800
SWIDTH 680 0
DWIDTH 17 0
BBX 12 15 3 1
BITMAP
0020
0040
0040
0080
0100
FFF0
0200
0200
0400
0800
FFF0
1000
1000
2000
2000
ENDCHAR
STARTCHAR 2264
ENCODING 8804
SWIDTH 600 0
DWIDTH 15 0
BBX 11 13 2 0
BITMAP
00C0
0300
0400
1800
6000
3000
0800
0600
0180
0040
0000
0000
FFE0
ENDCHAR
STARTCHAR 2265
ENCODING 8805
SWIDTH 600 0
DWIDTH 15 0
BBX 11 13 2 0
BITMAP
6000
1800
0600
0100
00C0
0080
0300
0C00
3000
4000
0000
0000
FFE0
ENDCHAR
ENDFONT
